<svg xmlns="http://www.w3.org/2000/svg" width="840" height="608" viewBox="0 0 840 608" role="img" aria-label="AI coding statistics"><style>
  .title{font:700 18px -apple-system,BlinkMacSystemFont,'Segoe UI',Arial,sans-serif;letter-spacing:.2px;fill:#24292F}.subtitle,.label{font:600 10px -apple-system,BlinkMacSystemFont,'Segoe UI',Arial,sans-serif;letter-spacing:.7px;fill:#57606A}.hero{font:750 31px -apple-system,BlinkMacSystemFont,'Segoe UI',Arial,sans-serif;letter-spacing:-1.2px;fill:#58A6FF}.stat{font:700 19px -apple-system,BlinkMacSystemFont,'Segoe UI',Arial,sans-serif;fill:#24292F}.model{font:600 13px -apple-system,BlinkMacSystemFont,'Segoe UI',Arial,sans-serif;fill:#24292F}.num{font:12px -apple-system,BlinkMacSystemFont,'Segoe UI',Arial,sans-serif;fill:#57606A}.share{font:700 12px -apple-system,BlinkMacSystemFont,'Segoe UI',Arial,sans-serif;fill:#24292F}.axis{font:10px -apple-system,BlinkMacSystemFont,'Segoe UI',Arial,sans-serif;fill:#57606A}.peakText{font:600 10px -apple-system,BlinkMacSystemFont,'Segoe UI',Arial,sans-serif;fill:#24292F}.empty{font:11px -apple-system,BlinkMacSystemFont,'Segoe UI',Arial,sans-serif;letter-spacing:.15px;fill:#57606A}.panel{fill:#F6F8FA;stroke:#D0D7DE}.pill{fill:#F6F8FA;stroke:#D0D7DE}.pin{stroke:#79C0FF;stroke-width:1.2;stroke-opacity:.8}.track{fill:#D8DEE4}.bar{fill:#58A6FF;transform-origin:420px center;animation:grow .8s ease-out both}.cube{transform-box:fill-box;transform-origin:center bottom;animation:rise .62s ease-out both}.peak{animation:fade .45s 1.1s both}.c1{animation-delay:.05s}.c2{animation-delay:.1s}.c3{animation-delay:.15s}.c4{animation-delay:.2s}.c5{animation-delay:.25s}.c6{animation-delay:.3s}.c7{animation-delay:.35s}.r0{animation:fade .4s .75s both}.r1{animation:fade .4s .83s both}.r2{animation:fade .4s .91s both}.r3{animation:fade .4s .99s both}.r4{animation:fade .4s 1.07s both}.b1{animation-delay:.08s}.b2{animation-delay:.16s}.b3{animation-delay:.24s}.b4{animation-delay:.32s}@keyframes rise{from{opacity:0;transform:scaleY(0)}to{opacity:1;transform:scaleY(1)}}@keyframes grow{from{transform:scaleX(0)}to{transform:scaleX(1)}}@keyframes fade{from{opacity:0;transform:translateY(7px)}to{opacity:1;transform:translateY(0)}}@media(prefers-reduced-motion:reduce){*{animation:none!important}}</style>
  <text x="24" y="45" class="title">AI WORKBENCH</text><text x="24" y="65" class="subtitle">CODEX CLI · MAC + WINDOWS · @HJCheng0602</text><text x="816" y="49" class="hero" text-anchor="end">18.1M tokens</text><text x="816" y="69" class="label" text-anchor="end">ALL-TIME TOTAL · 2026-07-16</text>
  <g><g class="cube c0" transform="translate(146 151)"><polygon points="0,0 11,5.5 0,11 -11,5.5" fill="#58A6FF" stroke="#b6d9ff" stroke-opacity=".18" stroke-width=".45"/><polygon points="11,5.5 11,17.5 0,23 0,11" fill="#388BFD"/><polygon points="0,11 0,23 -11,17.5 -11,5.5" fill="#1F6FEB"/></g><g class="cube c1" transform="translate(146 139)"><polygon points="0,0 11,5.5 0,11 -11,5.5" fill="#58A6FF" stroke="#b6d9ff" stroke-opacity=".18" stroke-width=".45"/><polygon points="11,5.5 11,17.5 0,23 0,11" fill="#388BFD"/><polygon points="0,11 0,23 -11,17.5 -11,5.5" fill="#1F6FEB"/></g><g class="cube c1" transform="translate(167 163)"><polygon points="0,0 11,5.5 0,11 -11,5.5" fill="#A5D6FF" stroke="#b6d9ff" stroke-opacity=".18" stroke-width=".45"/><polygon points="11,5.5 11,17.5 0,23 0,11" fill="#58A6FF"/><polygon points="0,11 0,23 -11,17.5 -11,5.5" fill="#388BFD"/></g><g class="cube c4" transform="translate(156 169)"><polygon points="0,0 11,5.5 0,11 -11,5.5" fill="#58A6FF" stroke="#b6d9ff" stroke-opacity=".18" stroke-width=".45"/><polygon points="11,5.5 11,17.5 0,23 0,11" fill="#388BFD"/><polygon points="0,11 0,23 -11,17.5 -11,5.5" fill="#1F6FEB"/></g><g class="cube c2" transform="translate(188 175)"><polygon points="0,0 11,5.5 0,11 -11,5.5" fill="#79C0FF" stroke="#b6d9ff" stroke-opacity=".18" stroke-width=".45"/><polygon points="11,5.5 11,17.5 0,23 0,11" fill="#1F6FEB"/><polygon points="0,11 0,23 -11,17.5 -11,5.5" fill="#0D419D"/></g><g class="cube c3" transform="translate(209 187)"><polygon points="0,0 11,5.5 0,11 -11,5.5" fill="#58A6FF" stroke="#b6d9ff" stroke-opacity=".18" stroke-width=".45"/><polygon points="11,5.5 11,17.5 0,23 0,11" fill="#388BFD"/><polygon points="0,11 0,23 -11,17.5 -11,5.5" fill="#1F6FEB"/></g><g class="cube c4" transform="translate(209 175)"><polygon points="0,0 11,5.5 0,11 -11,5.5" fill="#58A6FF" stroke="#b6d9ff" stroke-opacity=".18" stroke-width=".45"/><polygon points="11,5.5 11,17.5 0,23 0,11" fill="#388BFD"/><polygon points="0,11 0,23 -11,17.5 -11,5.5" fill="#1F6FEB"/></g><g class="cube c5" transform="translate(209 163)"><polygon points="0,0 11,5.5 0,11 -11,5.5" fill="#58A6FF" stroke="#b6d9ff" stroke-opacity=".18" stroke-width=".45"/><polygon points="11,5.5 11,17.5 0,23 0,11" fill="#388BFD"/><polygon points="0,11 0,23 -11,17.5 -11,5.5" fill="#1F6FEB"/></g><g class="cube c6" transform="translate(209 151)"><polygon points="0,0 11,5.5 0,11 -11,5.5" fill="#58A6FF" stroke="#b6d9ff" stroke-opacity=".18" stroke-width=".45"/><polygon points="11,5.5 11,17.5 0,23 0,11" fill="#388BFD"/><polygon points="0,11 0,23 -11,17.5 -11,5.5" fill="#1F6FEB"/></g><g class="cube c7" transform="translate(209 139)"><polygon points="0,0 11,5.5 0,11 -11,5.5" fill="#58A6FF" stroke="#b6d9ff" stroke-opacity=".18" stroke-width=".45"/><polygon points="11,5.5 11,17.5 0,23 0,11" fill="#388BFD"/><polygon points="0,11 0,23 -11,17.5 -11,5.5" fill="#1F6FEB"/></g><g class="cube c0" transform="translate(209 127)"><polygon points="0,0 11,5.5 0,11 -11,5.5" fill="#58A6FF" stroke="#b6d9ff" stroke-opacity=".18" stroke-width=".45"/><polygon points="11,5.5 11,17.5 0,23 0,11" fill="#388BFD"/><polygon points="0,11 0,23 -11,17.5 -11,5.5" fill="#1F6FEB"/></g><g class="cube c1" transform="translate(209 115)"><polygon points="0,0 11,5.5 0,11 -11,5.5" fill="#58A6FF" stroke="#b6d9ff" stroke-opacity=".18" stroke-width=".45"/><polygon points="11,5.5 11,17.5 0,23 0,11" fill="#388BFD"/><polygon points="0,11 0,23 -11,17.5 -11,5.5" fill="#1F6FEB"/></g><g class="cube c2" transform="translate(209 103)"><polygon points="0,0 11,5.5 0,11 -11,5.5" fill="#58A6FF" stroke="#b6d9ff" stroke-opacity=".18" stroke-width=".45"/><polygon points="11,5.5 11,17.5 0,23 0,11" fill="#388BFD"/><polygon points="0,11 0,23 -11,17.5 -11,5.5" fill="#1F6FEB"/></g><g class="cube c3" transform="translate(209 91)"><polygon points="0,0 11,5.5 0,11 -11,5.5" fill="#58A6FF" stroke="#b6d9ff" stroke-opacity=".18" stroke-width=".45"/><polygon points="11,5.5 11,17.5 0,23 0,11" fill="#388BFD"/><polygon points="0,11 0,23 -11,17.5 -11,5.5" fill="#1F6FEB"/></g><g class="cube c4" transform="translate(209 79)"><polygon points="0,0 11,5.5 0,11 -11,5.5" fill="#58A6FF" stroke="#b6d9ff" stroke-opacity=".18" stroke-width=".45"/><polygon points="11,5.5 11,17.5 0,23 0,11" fill="#388BFD"/><polygon points="0,11 0,23 -11,17.5 -11,5.5" fill="#1F6FEB"/></g><g class="cube c6" transform="translate(198 193)"><polygon points="0,0 11,5.5 0,11 -11,5.5" fill="#58A6FF" stroke="#b6d9ff" stroke-opacity=".18" stroke-width=".45"/><polygon points="11,5.5 11,17.5 0,23 0,11" fill="#388BFD"/><polygon points="0,11 0,23 -11,17.5 -11,5.5" fill="#1F6FEB"/></g><g class="peak"><line x1="209" y1="60" x2="209" y2="33" class="pin"/><rect x="159" y="12" width="100" height="20" rx="10" class="pill"/><text x="209" y="26" text-anchor="middle" class="peakText">13.4M · 07-16</text></g><text x="132" y="421" class="axis">07-06</text><text x="237" y="421" class="axis">07-16</text></g>
  <g class="panel"><rect x="502" y="94" width="314" height="88" rx="10"/></g><text x="522" y="130" class="stat">4d</text><text x="522" y="151" class="label">ACTIVE DAYS</text><text x="625" y="130" class="stat">1</text><text x="625" y="151" class="label">DEVICES</text><text x="729" y="130" class="stat">2</text><text x="729" y="151" class="label">MODELS</text>
  <g class="panel"><rect x="24" y="439" width="792" height="142" rx="11"/></g><text x="45" y="470" class="title" style="font-size:13px">MODEL DISTRIBUTION</text><text x="409" y="470" class="label" text-anchor="end">TOKENS</text><text x="796" y="470" class="label" text-anchor="end">SHARE</text><g class="row r0"><circle cx="47" cy="506" r="8" fill="#58A6FF" opacity=".22"/><path d="M43 506h8M47 502v8" stroke="#58A6FF" stroke-width="1.5" stroke-linecap="round"/><text x="63" y="511" class="model">gpt-5.6-terra</text><text x="409" y="511" class="num" text-anchor="end">15.6M</text><rect x="438" y="501" width="195" height="7" rx="3.5" class="track"/><rect x="438" y="501" width="168" height="7" rx="3.5" class="bar b0"/><text x="796" y="511" class="share" text-anchor="end">86%</text></g><g class="row r1"><circle cx="47" cy="529" r="8" fill="#79C0FF" opacity=".22"/><path d="M43 529h8M47 525v8" stroke="#79C0FF" stroke-width="1.5" stroke-linecap="round"/><text x="63" y="534" class="model">gpt-5.5</text><text x="409" y="534" class="num" text-anchor="end">2.5M</text><rect x="438" y="524" width="195" height="7" rx="3.5" class="track"/><rect x="438" y="524" width="27" height="7" rx="3.5" class="bar b1"/><text x="796" y="534" class="share" text-anchor="end">14%</text></g>
  <text x="24" y="602" class="subtitle">TRANSPARENT SVG · LOCAL-ONLY AGGREGATES · LIVE MOTION</text></svg>