<svg xmlns="http://www.w3.org/2000/svg" width="840" height="608" viewBox="0 0 840 608" role="img" aria-label="AI coding statistics"><style>
  .title{font:700 18px -apple-system,BlinkMacSystemFont,'Segoe UI',Arial,sans-serif;letter-spacing:.2px;fill:#F0F6FC}.subtitle,.label{font:600 10px -apple-system,BlinkMacSystemFont,'Segoe UI',Arial,sans-serif;letter-spacing:.7px;fill:#8B949E}.hero{font:750 31px -apple-system,BlinkMacSystemFont,'Segoe UI',Arial,sans-serif;letter-spacing:-1.2px;fill:#58A6FF}.stat{font:700 19px -apple-system,BlinkMacSystemFont,'Segoe UI',Arial,sans-serif;fill:#F0F6FC}.model,.num{font:12px -apple-system,BlinkMacSystemFont,'Segoe UI',Arial,sans-serif;fill:#F0F6FC}.empty{font:11px -apple-system,BlinkMacSystemFont,'Segoe UI',Arial,sans-serif;letter-spacing:.15px;fill:#8B949E}.panel{fill:#161B22;stroke:#30363D}.track{fill:#30363D}.bar{fill:#58A6FF;transform-origin:420px center;animation:grow .8s ease-out both}.cube{transform-box:fill-box;transform-origin:center bottom;animation:rise .62s ease-out both}.c1{animation-delay:.05s}.c2{animation-delay:.1s}.c3{animation-delay:.15s}.c4{animation-delay:.2s}.c5{animation-delay:.25s}.c6{animation-delay:.3s}.c7{animation-delay:.35s}.r0{animation:fade .4s .75s both}.r1{animation:fade .4s .83s both}.r2{animation:fade .4s .91s both}.r3{animation:fade .4s .99s both}.r4{animation:fade .4s 1.07s both}.b1{animation-delay:.08s}.b2{animation-delay:.16s}.b3{animation-delay:.24s}.b4{animation-delay:.32s}@keyframes rise{from{opacity:0;transform:scaleY(0)}to{opacity:1;transform:scaleY(1)}}@keyframes grow{from{transform:scaleX(0)}to{transform:scaleX(1)}}@keyframes fade{from{opacity:0;transform:translateY(7px)}to{opacity:1;transform:translateY(0)}}@media(prefers-reduced-motion:reduce){*{animation:none!important}}</style>
  <text x="24" y="45" class="title">AI WORKBENCH</text><text x="24" y="65" class="subtitle">CODEX CLI · MAC + WINDOWS · @HJCheng0602</text><text x="816" y="49" class="hero" text-anchor="end">18.1M tokens</text><text x="816" y="69" class="label" text-anchor="end">ALL-TIME TOTAL · 2026-07-16</text>
  <g><g class="cube c0" transform="translate(190 158)"><polygon points="0,0 10,5 0,10 -10,5" fill="#58A6FF"/><polygon points="10,5 10,16 0,21 0,10" fill="#388BFD"/><polygon points="0,10 0,21 -10,16 -10,5" fill="#1F6FEB"/></g><g class="cube c1" transform="translate(190 147)"><polygon points="0,0 10,5 0,10 -10,5" fill="#58A6FF"/><polygon points="10,5 10,16 0,21 0,10" fill="#388BFD"/><polygon points="0,10 0,21 -10,16 -10,5" fill="#1F6FEB"/></g><g class="cube c1" transform="translate(209 169)"><polygon points="0,0 10,5 0,10 -10,5" fill="#A5D6FF"/><polygon points="10,5 10,16 0,21 0,10" fill="#58A6FF"/><polygon points="0,10 0,21 -10,16 -10,5" fill="#388BFD"/></g><g class="cube c2" transform="translate(228 180)"><polygon points="0,0 10,5 0,10 -10,5" fill="#79C0FF"/><polygon points="10,5 10,16 0,21 0,10" fill="#1F6FEB"/><polygon points="0,10 0,21 -10,16 -10,5" fill="#0D419D"/></g><g class="cube c3" transform="translate(247 191)"><polygon points="0,0 10,5 0,10 -10,5" fill="#58A6FF"/><polygon points="10,5 10,16 0,21 0,10" fill="#388BFD"/><polygon points="0,10 0,21 -10,16 -10,5" fill="#1F6FEB"/></g><g class="cube c4" transform="translate(247 180)"><polygon points="0,0 10,5 0,10 -10,5" fill="#58A6FF"/><polygon points="10,5 10,16 0,21 0,10" fill="#388BFD"/><polygon points="0,10 0,21 -10,16 -10,5" fill="#1F6FEB"/></g><g class="cube c5" transform="translate(247 169)"><polygon points="0,0 10,5 0,10 -10,5" fill="#58A6FF"/><polygon points="10,5 10,16 0,21 0,10" fill="#388BFD"/><polygon points="0,10 0,21 -10,16 -10,5" fill="#1F6FEB"/></g><g class="cube c6" transform="translate(247 158)"><polygon points="0,0 10,5 0,10 -10,5" fill="#58A6FF"/><polygon points="10,5 10,16 0,21 0,10" fill="#388BFD"/><polygon points="0,10 0,21 -10,16 -10,5" fill="#1F6FEB"/></g><g class="cube c7" transform="translate(247 147)"><polygon points="0,0 10,5 0,10 -10,5" fill="#58A6FF"/><polygon points="10,5 10,16 0,21 0,10" fill="#388BFD"/><polygon points="0,10 0,21 -10,16 -10,5" fill="#1F6FEB"/></g><g class="cube c0" transform="translate(247 136)"><polygon points="0,0 10,5 0,10 -10,5" fill="#58A6FF"/><polygon points="10,5 10,16 0,21 0,10" fill="#388BFD"/><polygon points="0,10 0,21 -10,16 -10,5" fill="#1F6FEB"/></g><g class="cube c1" transform="translate(247 125)"><polygon points="0,0 10,5 0,10 -10,5" fill="#58A6FF"/><polygon points="10,5 10,16 0,21 0,10" fill="#388BFD"/><polygon points="0,10 0,21 -10,16 -10,5" fill="#1F6FEB"/></g><g class="cube c2" transform="translate(247 114)"><polygon points="0,0 10,5 0,10 -10,5" fill="#58A6FF"/><polygon points="10,5 10,16 0,21 0,10" fill="#388BFD"/><polygon points="0,10 0,21 -10,16 -10,5" fill="#1F6FEB"/></g><g class="cube c3" transform="translate(247 103)"><polygon points="0,0 10,5 0,10 -10,5" fill="#58A6FF"/><polygon points="10,5 10,16 0,21 0,10" fill="#388BFD"/><polygon points="0,10 0,21 -10,16 -10,5" fill="#1F6FEB"/></g><g class="cube c4" transform="translate(247 92)"><polygon points="0,0 10,5 0,10 -10,5" fill="#58A6FF"/><polygon points="10,5 10,16 0,21 0,10" fill="#388BFD"/><polygon points="0,10 0,21 -10,16 -10,5" fill="#1F6FEB"/></g></g><text x="128" y="421" class="label">OLDEST</text><text x="568" y="421" class="label">LATEST</text>
  <g class="panel"><rect x="502" y="94" width="314" height="88" rx="10"/></g><text x="522" y="130" class="stat">4d</text><text x="522" y="151" class="label">ACTIVE DAYS</text><text x="625" y="130" class="stat">1</text><text x="625" y="151" class="label">DEVICES</text><text x="729" y="130" class="stat">2</text><text x="729" y="151" class="label">MODELS</text>
  <g class="panel"><rect x="24" y="439" width="792" height="142" rx="11"/></g><text x="45" y="470" class="title" style="font-size:13px">MODEL DISTRIBUTION</text><text x="385" y="470" class="label" text-anchor="end">TOKENS</text><text x="796" y="470" class="label" text-anchor="end">SHARE</text><g class="row r0"><text x="45" y="501" class="model">gpt-5.6-terra</text><text x="385" y="501" class="num" text-anchor="end">15.6M</text><rect x="420" y="491" width="170" height="7" rx="3.5" class="track"/><rect x="420" y="491" width="146" height="7" rx="3.5" class="bar b0"/><text x="796" y="501" class="num" text-anchor="end">86%</text></g><g class="row r1"><text x="45" y="521" class="model">gpt-5.5</text><text x="385" y="521" class="num" text-anchor="end">2.5M</text><rect x="420" y="511" width="170" height="7" rx="3.5" class="track"/><rect x="420" y="511" width="24" height="7" rx="3.5" class="bar b1"/><text x="796" y="521" class="num" text-anchor="end">14%</text></g>
  <text x="24" y="602" class="subtitle">TRANSPARENT SVG · LOCAL-ONLY AGGREGATES · LIVE MOTION</text></svg>