<svg xmlns="http://www.w3.org/2000/svg" width="960" height="690" viewBox="0 0 960 690"><defs><style>
    .display{font:500 29px Georgia,'Times New Roman',serif;letter-spacing:-.6px;fill:#ede9df} .eyebrow{font:600 11px Arial,sans-serif;letter-spacing:2px;fill:#a8aa9d} .meta{font:600 10px Arial,sans-serif;letter-spacing:1.45px;fill:#a8aa9d} .metric{font:500 30px Georgia,'Times New Roman',serif;letter-spacing:-.7px}.sub{font:13px Arial,sans-serif;fill:#a8aa9d} .model{font:13px Arial,sans-serif;fill:#ede9df} .amount{font:600 12px Arial,sans-serif;fill:#ede9df} .rise{transform-box:fill-box;transform-origin:center bottom;animation:rise 1.4s ease-out both}.r1{animation-delay:.12s}.r2{animation-delay:.24s}.r3{animation-delay:.36s}.r4{animation-delay:.48s}@keyframes rise{0%{opacity:0;transform:translateY(25px) scaleY(.15)}55%{opacity:1}100%{opacity:1;transform:translateY(0) scaleY(1)}}
  </style><linearGradient id="wash" x1="0" x2="1"><stop stop-color="#758a64" stop-opacity=".2"/><stop offset="1" stop-color="#c59563" stop-opacity="0"/></linearGradient></defs>
  <rect width="960" height="690" rx="18" fill="#161816"/><rect x="18" y="18" width="924" height="654" rx="12" fill="none" stroke="#3a4038"/>
  <text x="48" y="63" class="eyebrow">HJ CHENG / PERSONAL COMPUTE LEDGER</text><circle cx="883" cy="57" r="5" fill="#758a64"><animate attributeName="opacity" values=".35;1;.35" dur="2s" repeatCount="indefinite"/></circle><text x="900" y="62" class="eyebrow" text-anchor="end">2026-07-16</text>
  <text x="48" y="108" class="display">AI work, measured without the noise.</text><line x1="48" y1="221" x2="912" y2="221" stroke="#3a4038"/>
  <g><text x="48" y="145" class="meta">TOKENS OBSERVED</text><text x="48" y="177" class="metric" fill="#758a64">0</text><text x="48" y="198" class="sub">all synced devices</text></g><g><text x="260" y="145" class="meta">ACTIVE DAYS</text><text x="260" y="177" class="metric" fill="#c59563">0d</text><text x="260" y="198" class="sub">in the recorded window</text></g><g><text x="472" y="145" class="meta">DEVICES</text><text x="472" y="177" class="metric" fill="#71859b">0</text><text x="472" y="198" class="sub">Mac + Windows ready</text></g><g><text x="684" y="145" class="meta">MODELS</text><text x="684" y="177" class="metric" fill="#aa766a">0</text><text x="684" y="198" class="sub">distinct Codex models</text></g>
  <rect x="48" y="252" width="522" height="362" rx="9" fill="#1e211e"/><text x="72" y="286" class="eyebrow">TOKEN TERRAIN / LAST 18 DAYS</text><text x="72" y="309" class="sub">each block is a local day; height follows total token volume</text><path d="M62 414 H550" stroke="#3a4038"/><path d="M72 430 H548" stroke="#3a4038" stroke-dasharray="3 9" opacity=".55"/><rect x="63" y="330" width="485" height="72" fill="url(#wash)" opacity=".55"><animate attributeName="y" values="330;398;330" dur="6s" repeatCount="indefinite"/></rect><line x1="63" y1="402" x2="548" y2="402" stroke="#c59563" stroke-opacity=".65"><animate attributeName="x1" values="63;490;63" dur="5s" repeatCount="indefinite"/></line><text x="72" y="578" class="eyebrow">LOCAL-ONLY LEDGER</text><text x="72" y="599" class="sub">No prompts, code, paths, or hostnames leave your machines.</text>
  <rect x="590" y="252" width="322" height="362" rx="9" fill="#1e211e"/><text x="607" y="286" class="eyebrow">MODEL MIX</text><text x="607" y="309" class="sub">share of observed Codex CLI tokens</text><line x1="607" y1="472" x2="894" y2="472" stroke="#3a4038"/><text x="607" y="525" class="sub">Waiting for your first local snapshot.</text>
  <text x="48" y="648" class="eyebrow">MAC + WINDOWS / CODEX CLI / LIVE SVG MOTION</text><text x="912" y="648" class="eyebrow" text-anchor="end">BUILD THE SYSTEM</text></svg>