<svg xmlns="http://www.w3.org/2000/svg" width="840" height="520" viewBox="0 0 840 520"><defs><linearGradient id="bar" x1="0" y1="0" x2="0" y2="1"><stop stop-color="#c4b5fd"/><stop offset=".5" stop-color="#60a5fa"/><stop offset="1" stop-color="#1d4ed8"/></linearGradient><style>.title{font:700 21px ui-monospace,SFMono-Regular,Menlo,monospace;letter-spacing:1.5px;fill:#e6edf7}.label{font:600 11px ui-monospace,SFMono-Regular,Menlo,monospace;letter-spacing:1.1px;fill:#8291a7}.value{font:700 27px ui-monospace,SFMono-Regular,Menlo,monospace}.muted{font:13px ui-monospace,SFMono-Regular,Menlo,monospace;fill:#8291a7}.model,.amount{font:600 13px ui-monospace,SFMono-Regular,Menlo,monospace;fill:#e6edf7}</style></defs><rect width="840" height="520" rx="16" fill="#090d14"/><rect x="1" y="1" width="838" height="518" rx="15" fill="none" stroke="#20304a"/><text x="34" y="45" class="title">AI WORKBENCH</text><circle cx="260" cy="39" r="5" fill="#22c55e"/><text x="276" y="44" class="muted">CODEX CLI · MULTI-DEVICE</text><text x="806" y="44" text-anchor="end" class="muted">2026-07-16</text><rect x="34" y="72" width="172" height="74" rx="12" fill="#111925" stroke="#23334a"/><text x="50" y="97" class="label">TOTAL TOKENS</text><text x="50" y="127" class="value" fill="#7dd3fc">0</text><rect x="232" y="72" width="172" height="74" rx="12" fill="#111925" stroke="#23334a"/><text x="248" y="97" class="label">ACTIVE DAYS</text><text x="248" y="127" class="value" fill="#a78bfa">0d</text><rect x="430" y="72" width="172" height="74" rx="12" fill="#111925" stroke="#23334a"/><text x="446" y="97" class="label">DEVICES</text><text x="446" y="127" class="value" fill="#60a5fa">0</text><rect x="628" y="72" width="172" height="74" rx="12" fill="#111925" stroke="#23334a"/><text x="644" y="97" class="label">MODELS</text><text x="644" y="127" class="value" fill="#c4b5fd">0</text><rect x="34" y="174" width="772" height="174" rx="12" fill="#0d1521" stroke="#23334a"/><text x="54" y="205" class="label">14-DAY TOKEN TIMELINE</text><text x="786" y="205" text-anchor="end" class="muted">READY TO CONNECT</text><line x1="54" y1="319" x2="786" y2="319" stroke="#25344a"/><rect x="34" y="366" width="772" height="134" rx="12" fill="#0d1521" stroke="#23334a"/><text x="54" y="393" class="label">MODEL DISTRIBUTION</text><text x="54" y="412" class="muted">Your first Codex CLI sync will populate this breakdown.</text></svg>