<svg xmlns="http://www.w3.org/2000/svg" width="840" height="608" viewBox="0 0 840 608" role="img" aria-label="AI coding statistics"><style>
  .title{font:700 18px -apple-system,BlinkMacSystemFont,'Segoe UI',Arial,sans-serif;letter-spacing:.2px;fill:#F0F6FC}.subtitle,.label{font:600 10px -apple-system,BlinkMacSystemFont,'Segoe UI',Arial,sans-serif;letter-spacing:.7px;fill:#8B949E}.hero{font:750 31px -apple-system,BlinkMacSystemFont,'Segoe UI',Arial,sans-serif;letter-spacing:-1.2px;fill:#58A6FF}.stat{font:700 19px -apple-system,BlinkMacSystemFont,'Segoe UI',Arial,sans-serif;fill:#F0F6FC}.model{font:600 13px -apple-system,BlinkMacSystemFont,'Segoe UI',Arial,sans-serif;fill:#F0F6FC}.num{font:12px -apple-system,BlinkMacSystemFont,'Segoe UI',Arial,sans-serif;fill:#8B949E}.share{font:700 12px -apple-system,BlinkMacSystemFont,'Segoe UI',Arial,sans-serif;fill:#F0F6FC}.axis{font:10px -apple-system,BlinkMacSystemFont,'Segoe UI',Arial,sans-serif;fill:#8B949E}.peakText{font:600 10px -apple-system,BlinkMacSystemFont,'Segoe UI',Arial,sans-serif;fill:#F0F6FC}.empty{font:11px -apple-system,BlinkMacSystemFont,'Segoe UI',Arial,sans-serif;letter-spacing:.15px;fill:#8B949E}.panel{fill:#161B22;stroke:#30363D}.pill{fill:#161B22;stroke:#30363D}.pin{stroke:#79C0FF;stroke-width:1.2;stroke-opacity:.8}.track{fill:#30363D}.bar{fill:#58A6FF;transform-origin:420px center;animation:grow .8s ease-out both}.cube{animation:appear .55s ease-out both}.peak{animation:fade .45s 1.1s both}.c1{animation-delay:.05s}.c2{animation-delay:.1s}.c3{animation-delay:.15s}.c4{animation-delay:.2s}.c5{animation-delay:.25s}.c6{animation-delay:.3s}.c7{animation-delay:.35s}.r0{animation:fade .4s .75s both}.r1{animation:fade .4s .83s both}.r2{animation:fade .4s .91s both}.r3{animation:fade .4s .99s both}.r4{animation:fade .4s 1.07s both}.b1{animation-delay:.08s}.b2{animation-delay:.16s}.b3{animation-delay:.24s}.b4{animation-delay:.32s}@keyframes appear{from{opacity:0}to{opacity:1}}@keyframes grow{from{transform:scaleX(0)}to{transform:scaleX(1)}}@keyframes fade{from{opacity:0;transform:translateY(7px)}to{opacity:1;transform:translateY(0)}}@media(prefers-reduced-motion:reduce){*{animation:none!important}}</style>
  <text x="24" y="45" class="title">AI WORKBENCH</text><text x="24" y="65" class="subtitle">CODEX CLI · MAC + WINDOWS · @HJCheng0602</text><text x="816" y="49" class="hero" text-anchor="end">18.1M tokens</text><text x="816" y="69" class="label" text-anchor="end">ALL-TIME TOTAL · 2026-07-16</text>
  <g><g class="cube c0"><polygon points="185,180 196,185.5 185,191 174,185.5" fill="#58A6FF" stroke="#b6d9ff" stroke-opacity=".18" stroke-width=".45"/><polygon points="196,185.5 196,197.5 185,203 185,191" fill="#388BFD"/><polygon points="185,191 185,203 174,197.5 174,185.5" fill="#1F6FEB"/></g><g class="cube c1"><polygon points="185,168 196,173.5 185,179 174,173.5" fill="#58A6FF" stroke="#b6d9ff" stroke-opacity=".18" stroke-width=".45"/><polygon points="196,173.5 196,185.5 185,191 185,179" fill="#388BFD"/><polygon points="185,179 185,191 174,185.5 174,173.5" fill="#1F6FEB"/></g><g class="cube c1"><polygon points="293,238 304,243.5 293,249 282,243.5" fill="#A5D6FF" stroke="#b6d9ff" stroke-opacity=".18" stroke-width=".45"/><polygon points="304,243.5 304,255.5 293,261 293,249" fill="#58A6FF"/><polygon points="293,249 293,261 282,255.5 282,243.5" fill="#388BFD"/></g><g class="cube c4"><polygon points="282,244 293,249.5 282,255 271,249.5" fill="#58A6FF" stroke="#b6d9ff" stroke-opacity=".18" stroke-width=".45"/><polygon points="293,249.5 293,261.5 282,267 282,255" fill="#388BFD"/><polygon points="282,255 282,267 271,261.5 271,249.5" fill="#1F6FEB"/></g><g class="cube c2"><polygon points="401,296 412,301.5 401,307 390,301.5" fill="#79C0FF" stroke="#b6d9ff" stroke-opacity=".18" stroke-width=".45"/><polygon points="412,301.5 412,313.5 401,319 401,307" fill="#1F6FEB"/><polygon points="401,307 401,319 390,313.5 390,301.5" fill="#0D419D"/></g><g class="cube c3"><polygon points="509,354 520,359.5 509,365 498,359.5" fill="#58A6FF" stroke="#b6d9ff" stroke-opacity=".18" stroke-width=".45"/><polygon points="520,359.5 520,371.5 509,377 509,365" fill="#388BFD"/><polygon points="509,365 509,377 498,371.5 498,359.5" fill="#1F6FEB"/></g><g class="cube c4"><polygon points="509,342 520,347.5 509,353 498,347.5" fill="#58A6FF" stroke="#b6d9ff" stroke-opacity=".18" stroke-width=".45"/><polygon points="520,347.5 520,359.5 509,365 509,353" fill="#388BFD"/><polygon points="509,353 509,365 498,359.5 498,347.5" fill="#1F6FEB"/></g><g class="cube c5"><polygon points="509,330 520,335.5 509,341 498,335.5" fill="#58A6FF" stroke="#b6d9ff" stroke-opacity=".18" stroke-width=".45"/><polygon points="520,335.5 520,347.5 509,353 509,341" fill="#388BFD"/><polygon points="509,341 509,353 498,347.5 498,335.5" fill="#1F6FEB"/></g><g class="cube c6"><polygon points="509,318 520,323.5 509,329 498,323.5" fill="#58A6FF" stroke="#b6d9ff" stroke-opacity=".18" stroke-width=".45"/><polygon points="520,323.5 520,335.5 509,341 509,329" fill="#388BFD"/><polygon points="509,329 509,341 498,335.5 498,323.5" fill="#1F6FEB"/></g><g class="cube c7"><polygon points="509,306 520,311.5 509,317 498,311.5" fill="#58A6FF" stroke="#b6d9ff" stroke-opacity=".18" stroke-width=".45"/><polygon points="520,311.5 520,323.5 509,329 509,317" fill="#388BFD"/><polygon points="509,317 509,329 498,323.5 498,311.5" fill="#1F6FEB"/></g><g class="cube c0"><polygon points="509,294 520,299.5 509,305 498,299.5" fill="#58A6FF" stroke="#b6d9ff" stroke-opacity=".18" stroke-width=".45"/><polygon points="520,299.5 520,311.5 509,317 509,305" fill="#388BFD"/><polygon points="509,305 509,317 498,311.5 498,299.5" fill="#1F6FEB"/></g><g class="cube c1"><polygon points="509,282 520,287.5 509,293 498,287.5" fill="#58A6FF" stroke="#b6d9ff" stroke-opacity=".18" stroke-width=".45"/><polygon points="520,287.5 520,299.5 509,305 509,293" fill="#388BFD"/><polygon points="509,293 509,305 498,299.5 498,287.5" fill="#1F6FEB"/></g><g class="cube c2"><polygon points="509,270 520,275.5 509,281 498,275.5" fill="#58A6FF" stroke="#b6d9ff" stroke-opacity=".18" stroke-width=".45"/><polygon points="520,275.5 520,287.5 509,293 509,281" fill="#388BFD"/><polygon points="509,281 509,293 498,287.5 498,275.5" fill="#1F6FEB"/></g><g class="cube c3"><polygon points="509,258 520,263.5 509,269 498,263.5" fill="#58A6FF" stroke="#b6d9ff" stroke-opacity=".18" stroke-width=".45"/><polygon points="520,263.5 520,275.5 509,281 509,269" fill="#388BFD"/><polygon points="509,269 509,281 498,275.5 498,263.5" fill="#1F6FEB"/></g><g class="cube c4"><polygon points="509,246 520,251.5 509,257 498,251.5" fill="#58A6FF" stroke="#b6d9ff" stroke-opacity=".18" stroke-width=".45"/><polygon points="520,251.5 520,263.5 509,269 509,257" fill="#388BFD"/><polygon points="509,257 509,269 498,263.5 498,251.5" fill="#1F6FEB"/></g><g class="cube c6"><polygon points="498,360 509,365.5 498,371 487,365.5" fill="#58A6FF" stroke="#b6d9ff" stroke-opacity=".18" stroke-width=".45"/><polygon points="509,365.5 509,377.5 498,383 498,371" fill="#388BFD"/><polygon points="498,371 498,383 487,377.5 487,365.5" fill="#1F6FEB"/></g><g class="peak"><line x1="509" y1="227" x2="509" y2="200" class="pin"/><rect x="459" y="179" width="100" height="20" rx="10" class="pill"/><text x="509" y="193" text-anchor="middle" class="peakText">13.4M · 07-16</text></g><text x="167" y="421" class="axis">07-06</text><text x="275" y="421" class="axis">07-13</text><text x="383" y="421" class="axis">07-14</text><text x="491" y="421" class="axis">07-16</text></g>
  <g class="panel"><rect x="502" y="94" width="314" height="88" rx="10"/></g><text x="522" y="130" class="stat">4d</text><text x="522" y="151" class="label">ACTIVE DAYS</text><text x="625" y="130" class="stat">1</text><text x="625" y="151" class="label">DEVICES</text><text x="729" y="130" class="stat">2</text><text x="729" y="151" class="label">MODELS</text>
  <g class="panel"><rect x="24" y="439" width="792" height="142" rx="11"/></g><text x="45" y="470" class="title" style="font-size:13px">MODEL DISTRIBUTION</text><text x="409" y="470" class="label" text-anchor="end">TOKENS</text><text x="796" y="470" class="label" text-anchor="end">SHARE</text><g class="row r0"><circle cx="47" cy="506" r="8" fill="#58A6FF" opacity=".22"/><path d="M43 506h8M47 502v8" stroke="#58A6FF" stroke-width="1.5" stroke-linecap="round"/><text x="63" y="511" class="model">gpt-5.6-terra</text><text x="409" y="511" class="num" text-anchor="end">15.6M</text><rect x="438" y="501" width="195" height="7" rx="3.5" class="track"/><rect x="438" y="501" width="168" height="7" rx="3.5" class="bar b0"/><text x="796" y="511" class="share" text-anchor="end">86%</text></g><g class="row r1"><circle cx="47" cy="529" r="8" fill="#79C0FF" opacity=".22"/><path d="M43 529h8M47 525v8" stroke="#79C0FF" stroke-width="1.5" stroke-linecap="round"/><text x="63" y="534" class="model">gpt-5.5</text><text x="409" y="534" class="num" text-anchor="end">2.5M</text><rect x="438" y="524" width="195" height="7" rx="3.5" class="track"/><rect x="438" y="524" width="27" height="7" rx="3.5" class="bar b1"/><text x="796" y="534" class="share" text-anchor="end">14%</text></g>
  <text x="24" y="602" class="subtitle">TRANSPARENT SVG · LOCAL-ONLY AGGREGATES · LIVE MOTION</text></svg>