<svg xmlns="http://www.w3.org/2000/svg" width="840" height="326" viewBox="0 0 840 326" role="img" aria-label="JinCheng Han technical focus across GPU kernels, AI systems, and MLSys research">
  <style>
    text{font-family:ui-monospace,'SFMono-Regular',Menlo,Consolas,monospace;text-rendering:geometricPrecision}
    .title{font-size:20px;font-weight:700;fill:#EAF2FF}
    .eyebrow{font-size:10px;font-weight:700;fill:#A1B2C9}
    .section{font-size:11px;font-weight:700;fill:#EAF2FF}
    .sectionMeta{font-size:8px;font-weight:700;fill:#7488A3}
    .chipText{font-size:8px;font-weight:700;fill:#EAF2FF}
    .nodeLabel{font-size:9px;font-weight:700;fill:#EAF2FF}
    .nodeDetail{font-size:7.5px;font-weight:700;fill:#A1B2C9}
    .footer{font-size:8px;font-weight:700;fill:#A1B2C9}
    .panel{fill:#151C27;stroke:#3B4F6A;stroke-width:1}
    .panelHighlight{fill:none;stroke:#58A6FF;stroke-opacity:.25;stroke-width:1;animation:panelBreathe 4.8s ease-in-out 1.35s infinite}
    .chipPanel{fill:#101722;stroke:#3B4F6A;stroke-width:1}
    .grid{stroke:#2D4058;stroke-width:1}
    .track{fill:#2A3C54}
    .intro,.panelIn{animation:fadeUp 560ms cubic-bezier(.22,1,.36,1) both}
    .breathRing{transform-box:fill-box;transform-origin:center;animation:nodeBreathe 4s ease-in-out 1.35s infinite}
    .signal{transform-box:fill-box;transform-origin:0% 50%;animation:signalFlow 3.8s ease-in-out 1.35s infinite}
    @keyframes fadeUp{from{opacity:0;transform:translateY(7px)}to{opacity:1;transform:translateY(0)}}
    @keyframes fadeIn{from{opacity:0}to{opacity:1}}
    @keyframes panelBreathe{0%,100%{stroke-opacity:.18}50%{stroke-opacity:.72}}
    @keyframes nodeBreathe{0%,100%{opacity:.12;transform:scale(.72)}50%{opacity:.7;transform:scale(1.2)}}
    @keyframes signalFlow{0%,100%{opacity:.5;transform:scaleX(.78)}50%{opacity:1;transform:scaleX(1)}}
    @media(prefers-reduced-motion:reduce){*{animation:none!important}}
  </style>

  <g class="intro"><text x="24" y="32" class="title">TECHNICAL FOCUS</text><text x="24" y="53" class="eyebrow">GPU KERNELS | AI SYSTEMS | MLSYS RESEARCH</text><text x="816" y="32" text-anchor="end" class="eyebrow">BUILD - PROFILE - VALIDATE</text></g>

  <g class="panelIn" style="animation-delay:.38s"><rect x="24" y="76" width="248" height="202" rx="8" class="panel"/><rect x="25" y="77" width="246" height="200" rx="7" class="panelHighlight"/>
    <text x="44" y="105" class="section">KERNEL ENGINEERING</text><text x="44" y="120" class="sectionMeta">CUDA C++ TO PTX / SASS</text>
    <line x1="44" y1="135" x2="252" y2="135" class="grid"/>
    <path d="M49 181h48v-12h48v-12h48v-12h42" fill="none" stroke="#58A6FF" stroke-width="2" stroke-linejoin="round"/>
    <rect x="49" y="182" width="48" height="8" rx="2" fill="#3979D3" class="signal"/><rect x="97" y="170" width="48" height="8" rx="2" fill="#58A6FF" class="signal"/><rect x="145" y="158" width="48" height="8" rx="2" fill="#7EE7F5" class="signal"/><rect x="193" y="146" width="42" height="8" rx="2" fill="#C2E3FF" class="signal"/>
    <text x="49" y="207" class="sectionMeta">TILE - LOAD - SCHEDULE - EXECUTE</text>
    <g class="chip"><rect x="44" y="229" width="58" height="21" rx="5" class="chipPanel"/><rect x="52" y="237" width="4" height="4" rx="2" fill="#58A6FF"/><text x="62" y="243" class="chipText">GEMM</text></g><g class="chip"><rect x="108" y="229" width="89" height="21" rx="5" class="chipPanel"/><rect x="116" y="237" width="4" height="4" rx="2" fill="#7EE7F5"/><text x="126" y="243" class="chipText">FLASHATTN</text></g><g class="chip"><rect x="203" y="229" width="49" height="21" rx="5" class="chipPanel"/><rect x="211" y="237" width="4" height="4" rx="2" fill="#58A6FF"/><text x="221" y="243" class="chipText">TOPK</text></g>
  </g>

  <g class="panelIn" style="animation-delay:.54s"><rect x="296" y="76" width="248" height="202" rx="8" class="panel"/><rect x="297" y="77" width="246" height="200" rx="7" class="panelHighlight"/>
    <text x="316" y="105" class="section">GPU ARCHITECTURE</text><text x="316" y="120" class="sectionMeta">HOPPER / BLACKWELL</text>
    <line x1="316" y1="135" x2="524" y2="135" class="grid"/>
    <line x1="332" y1="157" x2="332" y2="239" class="grid"/>
    <g class="focusNode"><circle cx="332" cy="161" r="12" fill="none" stroke="#58A6FF" stroke-width="1" class="breathRing"/><circle cx="332" cy="161" r="4" fill="#58A6FF"/><circle cx="332" cy="161" r="8" fill="none" stroke="#58A6FF" stroke-opacity=".35" stroke-width="1"/><text x="347" y="160" class="nodeLabel">MEMORY PATH</text><text x="347" y="172" class="nodeDetail">TMA  |  DSM  |  TMEM</text></g>
    <g class="focusNode"><circle cx="332" cy="195" r="12" fill="none" stroke="#7EE7F5" stroke-width="1" class="breathRing"/><circle cx="332" cy="195" r="4" fill="#7EE7F5"/><circle cx="332" cy="195" r="8" fill="none" stroke="#7EE7F5" stroke-opacity=".35" stroke-width="1"/><text x="347" y="194" class="nodeLabel">EXECUTION</text><text x="347" y="206" class="nodeDetail">WARPS  |  CLUSTERS  |  UMMA</text></g>
    <g class="focusNode"><circle cx="332" cy="229" r="12" fill="none" stroke="#58A6FF" stroke-width="1" class="breathRing"/><circle cx="332" cy="229" r="4" fill="#58A6FF"/><circle cx="332" cy="229" r="8" fill="none" stroke="#58A6FF" stroke-opacity=".35" stroke-width="1"/><text x="347" y="228" class="nodeLabel">PERFORMANCE</text><text x="347" y="240" class="nodeDetail">OCCUPANCY  |  CARVEOUT</text></g>
    <g class="chip"><rect x="316" y="247" width="94" height="21" rx="5" class="chipPanel"/><rect x="324" y="255" width="4" height="4" rx="2" fill="#58A6FF"/><text x="334" y="261" class="chipText">CUTLASS</text></g><g class="chip"><rect x="416" y="247" width="69" height="21" rx="5" class="chipPanel"/><rect x="424" y="255" width="4" height="4" rx="2" fill="#7EE7F5"/><text x="434" y="261" class="chipText">CUTE</text></g>
  </g>

  <g class="panelIn" style="animation-delay:.70s"><rect x="568" y="76" width="248" height="202" rx="8" class="panel"/><rect x="569" y="77" width="246" height="200" rx="7" class="panelHighlight"/>
    <text x="588" y="105" class="section">SYSTEMS RESEARCH</text><text x="588" y="120" class="sectionMeta">MEASURED, END-TO-END WORK</text>
    <line x1="588" y1="135" x2="796" y2="135" class="grid"/>
    <g class="chip"><rect x="588" y="151" width="105" height="21" rx="5" class="chipPanel"/><rect x="596" y="159" width="4" height="4" rx="2" fill="#58A6FF"/><text x="606" y="165" class="chipText">LLM INFERENCE</text></g><g class="chip"><rect x="699" y="151" width="83" height="21" rx="5" class="chipPanel"/><rect x="707" y="159" width="4" height="4" rx="2" fill="#7EE7F5"/><text x="717" y="165" class="chipText">MLSYS</text></g>
    <g class="focusNode"><circle cx="604" cy="195" r="12" fill="none" stroke="#58A6FF" stroke-width="1" class="breathRing"/><circle cx="604" cy="195" r="4" fill="#58A6FF"/><circle cx="604" cy="195" r="8" fill="none" stroke="#58A6FF" stroke-opacity=".35" stroke-width="1"/><text x="619" y="194" class="nodeLabel">PROFILE</text><text x="619" y="206" class="nodeDetail">NSIGHT COMPUTE  +  NSYS</text></g>
    <g class="focusNode"><circle cx="604" cy="228" r="12" fill="none" stroke="#7EE7F5" stroke-width="1" class="breathRing"/><circle cx="604" cy="228" r="4" fill="#7EE7F5"/><circle cx="604" cy="228" r="8" fill="none" stroke="#7EE7F5" stroke-opacity=".35" stroke-width="1"/><text x="619" y="227" class="nodeLabel">RESEARCH</text><text x="619" y="239" class="nodeDetail">SYSTEMS  +  VISUAL COMPUTING</text></g>
    <text x="588" y="260" class="sectionMeta">SLAM3R - DENSE RECONSTRUCTION</text>
  </g>

  <line x1="24" y1="300" x2="816" y2="300" class="grid"/>
  <text x="24" y="317" class="footer">SOURCE-DRIVEN STUDY | HARDWARE-AWARE DESIGN | REPRODUCIBLE MEASUREMENT</text><text x="816" y="317" text-anchor="end" class="footer">JINCHENG HAN</text>
</svg>