<svg xmlns="http://www.w3.org/2000/svg" width="840" height="643" viewBox="0 0 840 643" role="img" aria-label="HJ Cheng six month AI coding and token economy dashboard">
  <style>
    text{font-family:ui-monospace,'SFMono-Regular',Menlo,Consolas,monospace;text-rendering:geometricPrecision}
    .title{font-size:22px;font-weight:700;fill:#17243A}
    .eyebrow{font-size:10px;font-weight:700;fill:#526A87}
    .hero{font-size:40px;font-weight:700;fill:#0969DA}
    .heroUnit{font-size:12px;font-weight:700;fill:#0969DA}
    .muted{font-size:10px;font-weight:600;fill:#526A87}
    .pillText{font-size:10px;font-weight:700;fill:#17243A}
    .stat{font-size:23px;font-weight:700;fill:#17243A}
    .statLabel{font-size:9px;font-weight:700;fill:#526A87}
    .month{font-size:9px;font-weight:700;fill:#526A87}
    .peakText{font-size:10px;font-weight:700;fill:#17243A}
    .section{font-size:13px;font-weight:700;fill:#17243A}
    .model{font-size:13px;font-weight:700;fill:#17243A}
    .rowMeta{font-size:8.5px;font-weight:600;fill:#7B90AA}
    .splitLabel{font-size:8px;font-weight:700;fill:#526A87}
    .numberStrong{font-size:14px;font-weight:700;fill:#17243A}
    .empty{font-size:11px;font-weight:600;fill:#526A87}
    .panel{fill:#F4F8FE;stroke:#BDCCE1;stroke-width:1}
    .panelHighlight{fill:none;stroke:url(#panelGlow);stroke-width:1}
    .splitPanel{fill:#FFFFFF;stroke:#BDCCE1;stroke-width:1}
    .pill{fill:#F4F8FE;stroke:#BDCCE1;stroke-width:1}
    .track{fill:#D4E0EF}
    .pin{stroke:#087EA4;stroke-width:1.4;stroke-opacity:.9}
    .grid{stroke:#D8E3F1;stroke-width:1}
    .intro,.panelIn,.mrow{animation:fadeUp 560ms cubic-bezier(.22,1,.36,1) both}
    .terrainIn{animation:fadeIn 600ms ease-out 240ms both}
    .cube{transform-box:fill-box;transform-origin:50% 100%;animation:rise 560ms cubic-bezier(.2,.9,.3,1) both}
    .meterFill{transform-box:fill-box;transform-origin:0% 50%;animation:growX 620ms cubic-bezier(.22,1,.36,1) 780ms both}
    .beacon{transform-box:fill-box;transform-origin:50% 50%;animation:fadeIn 500ms ease-out 1.35s both,pulse 4.2s ease-in-out 2s infinite}
    @keyframes fadeUp{from{opacity:0;transform:translateY(8px)}to{opacity:1;transform:translateY(0)}}
    @keyframes fadeIn{from{opacity:0}to{opacity:1}}
    @keyframes rise{0%{opacity:0;transform:scaleY(0)}35%{opacity:1}100%{opacity:1;transform:scaleY(1)}}
    @keyframes growX{from{transform:scaleX(0)}to{transform:scaleX(1)}}
    @keyframes pulse{0%,100%{opacity:.82}50%{opacity:1}}
    @media(prefers-reduced-motion:reduce){*{animation:none!important}}
  </style>

  <defs>
    <linearGradient id="panelGlow" x1="0" y1="0" x2="1" y2="0"><stop stop-color="#0969DA" stop-opacity=".46"/><stop offset=".45" stop-color="#087EA4" stop-opacity=".05"/><stop offset="1" stop-color="#087EA4" stop-opacity=".28"/></linearGradient>
    <linearGradient id="greenLegend"><stop stop-color="#DCE7F5"/><stop offset=".3" stop-color="#A8C9F5"/><stop offset="1" stop-color="#3687E8"/></linearGradient>
  </defs>

  <g class="intro"><text x="24" y="32" class="title">VIBE CODING STATS</text><text x="24" y="54" class="eyebrow">CODEX CLI | MULTI-DEVICE LEDGER | @HJCHENG0602</text></g>
  <g class="intro" style="animation-delay:.08s"><text x="816" y="43" class="hero" text-anchor="end">234.4M<tspan class="heroUnit"> TOKENS</tspan></text><text x="816" y="62" class="muted" text-anchor="end">ROLLING 6 MONTHS | 2026-07-17</text></g>

  <g class="intro tag" style="animation-delay:0.20s"><rect x="24" y="68" width="119" height="23" rx="11.5" class="pill"/>
      <g transform="translate(40 79.5)" fill="none" stroke="#0969DA" stroke-width="1.25" stroke-linecap="round" opacity=".95">
    <path d="M0-6.4c3.4 0 6 2.2 6 5.2 0 1.5-.6 2.8-1.7 3.7"/>
    <path d="M5.6 3.2C3.9 6.1.7 7.2-2 5.8c-1.3-.7-2.1-1.9-2.3-3.3"/>
    <path d="M-5.6 3.2C-7.3.3-6.7-3.1-4-4.7c1.3-.7 2.7-.8 4.1-.3"/>
    <path d="M-3.7-1.7L0-3.9l3.7 2.2v4.3L0 4.7l-3.7-2.1z"/>
  </g>
      <text x="54" y="83" class="pillText">gpt-5.6-sol</text></g><g class="intro tag" style="animation-delay:0.28s"><rect x="151" y="68" width="133" height="23" rx="11.5" class="pill"/>
      <g transform="translate(167 79.5)" fill="none" stroke="#087EA4" stroke-width="1.25" stroke-linecap="round" opacity=".95">
    <path d="M0-6.4c3.4 0 6 2.2 6 5.2 0 1.5-.6 2.8-1.7 3.7"/>
    <path d="M5.6 3.2C3.9 6.1.7 7.2-2 5.8c-1.3-.7-2.1-1.9-2.3-3.3"/>
    <path d="M-5.6 3.2C-7.3.3-6.7-3.1-4-4.7c1.3-.7 2.7-.8 4.1-.3"/>
    <path d="M-3.7-1.7L0-3.9l3.7 2.2v4.3L0 4.7l-3.7-2.1z"/>
  </g>
      <text x="181" y="83" class="pillText">gpt-5.6-terra</text></g><g class="intro tag" style="animation-delay:0.36s"><rect x="292" y="68" width="105" height="23" rx="11.5" class="pill"/>
      <g transform="translate(308 79.5)" fill="none" stroke="#087EA4" stroke-width="1.25" stroke-linecap="round" opacity=".95">
    <path d="M0-6.4c3.4 0 6 2.2 6 5.2 0 1.5-.6 2.8-1.7 3.7"/>
    <path d="M5.6 3.2C3.9 6.1.7 7.2-2 5.8c-1.3-.7-2.1-1.9-2.3-3.3"/>
    <path d="M-5.6 3.2C-7.3.3-6.7-3.1-4-4.7c1.3-.7 2.7-.8 4.1-.3"/>
    <path d="M-3.7-1.7L0-3.9l3.7 2.2v4.3L0 4.7l-3.7-2.1z"/>
  </g>
      <text x="322" y="83" class="pillText">gpt-5.5</text></g>
  <g class="terrainIn"><text x="24" y="116" class="eyebrow">6-MONTH WINDOW | ONE CUBE PER DAY</text><text x="24" y="133" class="muted">HEIGHT AND COLOR SHOW DAILY TOKEN VOLUME</text><g><g class="cube" style="animation-delay:0.11s">
    <polygon points="111.4,140.5 118.4,144.2 111.4,147.9 104.4,144.2" fill="#DCE7F5" stroke="#BDCCE1" stroke-opacity="0.38" stroke-width=".42"/>
    <polygon points="118.4,144.2 118.4,147.2 111.4,150.9 111.4,147.9" fill="#CDDCEE"/>
    <polygon points="111.4,147.9 111.4,150.9 104.4,147.2 104.4,144.2" fill="#C1D3E8"/>
  </g><g class="cube" style="animation-delay:0.10s">
    <polygon points="104,144.25 111,147.95 104,151.65 97,147.95" fill="#DCE7F5" stroke="#BDCCE1" stroke-opacity="0.38" stroke-width=".42"/>
    <polygon points="111,147.95 111,150.95 104,154.65 104,151.65" fill="#CDDCEE"/>
    <polygon points="104,151.65 104,154.65 97,150.95 97,147.95" fill="#C1D3E8"/>
  </g><g class="cube" style="animation-delay:0.16s">
    <polygon points="127.2,145.05 134.2,148.75 127.2,152.45000000000002 120.2,148.75" fill="#DCE7F5" stroke="#BDCCE1" stroke-opacity="0.38" stroke-width=".42"/>
    <polygon points="134.2,148.75 134.2,151.75 127.2,155.45000000000002 127.2,152.45000000000002" fill="#CDDCEE"/>
    <polygon points="127.2,152.45000000000002 127.2,155.45000000000002 120.2,151.75 120.2,148.75" fill="#C1D3E8"/>
  </g><g class="cube" style="animation-delay:0.15s">
    <polygon points="119.8,148.8 126.8,152.5 119.8,156.20000000000002 112.8,152.5" fill="#DCE7F5" stroke="#BDCCE1" stroke-opacity="0.38" stroke-width=".42"/>
    <polygon points="126.8,152.5 126.8,155.5 119.8,159.20000000000002 119.8,156.20000000000002" fill="#CDDCEE"/>
    <polygon points="119.8,156.20000000000002 119.8,159.20000000000002 112.8,155.5 112.8,152.5" fill="#C1D3E8"/>
  </g><g class="cube" style="animation-delay:0.21s">
    <polygon points="143,149.6 150,153.29999999999998 143,157 136,153.29999999999998" fill="#DCE7F5" stroke="#BDCCE1" stroke-opacity="0.38" stroke-width=".42"/>
    <polygon points="150,153.29999999999998 150,156.29999999999998 143,160 143,157" fill="#CDDCEE"/>
    <polygon points="143,157 143,160 136,156.29999999999998 136,153.29999999999998" fill="#C1D3E8"/>
  </g><g class="cube" style="animation-delay:0.14s">
    <polygon points="112.4,152.55 119.4,156.25 112.4,159.95000000000002 105.4,156.25" fill="#DCE7F5" stroke="#BDCCE1" stroke-opacity="0.38" stroke-width=".42"/>
    <polygon points="119.4,156.25 119.4,159.25 112.4,162.95000000000002 112.4,159.95000000000002" fill="#CDDCEE"/>
    <polygon points="112.4,159.95000000000002 112.4,162.95000000000002 105.4,159.25 105.4,156.25" fill="#C1D3E8"/>
  </g><g class="cube" style="animation-delay:0.20s">
    <polygon points="135.6,153.35 142.6,157.04999999999998 135.6,160.75 128.6,157.04999999999998" fill="#DCE7F5" stroke="#BDCCE1" stroke-opacity="0.38" stroke-width=".42"/>
    <polygon points="142.6,157.04999999999998 142.6,160.04999999999998 135.6,163.75 135.6,160.75" fill="#CDDCEE"/>
    <polygon points="135.6,160.75 135.6,163.75 128.6,160.04999999999998 128.6,157.04999999999998" fill="#C1D3E8"/>
  </g><g class="cube" style="animation-delay:0.25s">
    <polygon points="158.8,154.15 165.8,157.85 158.8,161.55 151.8,157.85" fill="#DCE7F5" stroke="#BDCCE1" stroke-opacity="0.38" stroke-width=".42"/>
    <polygon points="165.8,157.85 165.8,160.85 158.8,164.55 158.8,161.55" fill="#CDDCEE"/>
    <polygon points="158.8,161.55 158.8,164.55 151.8,160.85 151.8,157.85" fill="#C1D3E8"/>
  </g><g class="cube" style="animation-delay:0.14s">
    <polygon points="105,156.3 112,160 105,163.70000000000002 98,160" fill="#DCE7F5" stroke="#BDCCE1" stroke-opacity="0.38" stroke-width=".42"/>
    <polygon points="112,160 112,163 105,166.70000000000002 105,163.70000000000002" fill="#CDDCEE"/>
    <polygon points="105,163.70000000000002 105,166.70000000000002 98,163 98,160" fill="#C1D3E8"/>
  </g><g class="cube" style="animation-delay:0.19s">
    <polygon points="128.2,157.1 135.2,160.79999999999998 128.2,164.5 121.19999999999999,160.79999999999998" fill="#DCE7F5" stroke="#BDCCE1" stroke-opacity="0.38" stroke-width=".42"/>
    <polygon points="135.2,160.79999999999998 135.2,163.79999999999998 128.2,167.5 128.2,164.5" fill="#CDDCEE"/>
    <polygon points="128.2,164.5 128.2,167.5 121.19999999999999,163.79999999999998 121.19999999999999,160.79999999999998" fill="#C1D3E8"/>
  </g><g class="cube" style="animation-delay:0.25s">
    <polygon points="151.4,157.9 158.4,161.6 151.4,165.3 144.4,161.6" fill="#DCE7F5" stroke="#BDCCE1" stroke-opacity="0.38" stroke-width=".42"/>
    <polygon points="158.4,161.6 158.4,164.6 151.4,168.3 151.4,165.3" fill="#CDDCEE"/>
    <polygon points="151.4,165.3 151.4,168.3 144.4,164.6 144.4,161.6" fill="#C1D3E8"/>
  </g><g class="cube" style="animation-delay:0.30s">
    <polygon points="174.6,158.7 181.6,162.39999999999998 174.6,166.1 167.6,162.39999999999998" fill="#DCE7F5" stroke="#BDCCE1" stroke-opacity="0.38" stroke-width=".42"/>
    <polygon points="181.6,162.39999999999998 181.6,165.39999999999998 174.6,169.1 174.6,166.1" fill="#CDDCEE"/>
    <polygon points="174.6,166.1 174.6,169.1 167.6,165.39999999999998 167.6,162.39999999999998" fill="#C1D3E8"/>
  </g><g class="cube" style="animation-delay:0.13s">
    <polygon points="97.6,160.05 104.6,163.75 97.6,167.45000000000002 90.6,163.75" fill="#DCE7F5" stroke="#BDCCE1" stroke-opacity="0.38" stroke-width=".42"/>
    <polygon points="104.6,163.75 104.6,166.75 97.6,170.45000000000002 97.6,167.45000000000002" fill="#CDDCEE"/>
    <polygon points="97.6,167.45000000000002 97.6,170.45000000000002 90.6,166.75 90.6,163.75" fill="#C1D3E8"/>
  </g><g class="cube" style="animation-delay:0.18s">
    <polygon points="120.8,160.85 127.8,164.54999999999998 120.8,168.25 113.8,164.54999999999998" fill="#DCE7F5" stroke="#BDCCE1" stroke-opacity="0.38" stroke-width=".42"/>
    <polygon points="127.8,164.54999999999998 127.8,167.54999999999998 120.8,171.25 120.8,168.25" fill="#CDDCEE"/>
    <polygon points="120.8,168.25 120.8,171.25 113.8,167.54999999999998 113.8,164.54999999999998" fill="#C1D3E8"/>
  </g><g class="cube" style="animation-delay:0.24s">
    <polygon points="144,161.65 151,165.35 144,169.05 137,165.35" fill="#DCE7F5" stroke="#BDCCE1" stroke-opacity="0.38" stroke-width=".42"/>
    <polygon points="151,165.35 151,168.35 144,172.05 144,169.05" fill="#CDDCEE"/>
    <polygon points="144,169.05 144,172.05 137,168.35 137,165.35" fill="#C1D3E8"/>
  </g><g class="cube" style="animation-delay:0.30s">
    <polygon points="167.2,162.45 174.2,166.14999999999998 167.2,169.85 160.2,166.14999999999998" fill="#DCE7F5" stroke="#BDCCE1" stroke-opacity="0.38" stroke-width=".42"/>
    <polygon points="174.2,166.14999999999998 174.2,169.14999999999998 167.2,172.85 167.2,169.85" fill="#CDDCEE"/>
    <polygon points="167.2,169.85 167.2,172.85 160.2,169.14999999999998 160.2,166.14999999999998" fill="#C1D3E8"/>
  </g><g class="cube" style="animation-delay:0.35s">
    <polygon points="190.4,163.25 197.4,166.95 190.4,170.65 183.4,166.95" fill="#DCE7F5" stroke="#BDCCE1" stroke-opacity="0.38" stroke-width=".42"/>
    <polygon points="197.4,166.95 197.4,169.95 190.4,173.65 190.4,170.65" fill="#CDDCEE"/>
    <polygon points="190.4,170.65 190.4,173.65 183.4,169.95 183.4,166.95" fill="#C1D3E8"/>
  </g><g class="cube" style="animation-delay:0.12s">
    <polygon points="90.2,163.8 97.2,167.5 90.2,171.20000000000002 83.2,167.5" fill="#DCE7F5" stroke="#BDCCE1" stroke-opacity="0.38" stroke-width=".42"/>
    <polygon points="97.2,167.5 97.2,170.5 90.2,174.20000000000002 90.2,171.20000000000002" fill="#CDDCEE"/>
    <polygon points="90.2,171.20000000000002 90.2,174.20000000000002 83.2,170.5 83.2,167.5" fill="#C1D3E8"/>
  </g><g class="cube" style="animation-delay:0.18s">
    <polygon points="113.39999999999999,164.6 120.39999999999999,168.29999999999998 113.39999999999999,172 106.39999999999999,168.29999999999998" fill="#DCE7F5" stroke="#BDCCE1" stroke-opacity="0.38" stroke-width=".42"/>
    <polygon points="120.39999999999999,168.29999999999998 120.39999999999999,171.29999999999998 113.39999999999999,175 113.39999999999999,172" fill="#CDDCEE"/>
    <polygon points="113.39999999999999,172 113.39999999999999,175 106.39999999999999,171.29999999999998 106.39999999999999,168.29999999999998" fill="#C1D3E8"/>
  </g><g class="cube" style="animation-delay:0.23s">
    <polygon points="136.60000000000002,165.4 143.60000000000002,169.1 136.60000000000002,172.8 129.60000000000002,169.1" fill="#DCE7F5" stroke="#BDCCE1" stroke-opacity="0.38" stroke-width=".42"/>
    <polygon points="143.60000000000002,169.1 143.60000000000002,172.1 136.60000000000002,175.8 136.60000000000002,172.8" fill="#CDDCEE"/>
    <polygon points="136.60000000000002,172.8 136.60000000000002,175.8 129.60000000000002,172.1 129.60000000000002,169.1" fill="#C1D3E8"/>
  </g><g class="cube" style="animation-delay:0.29s">
    <polygon points="159.79999999999998,166.2 166.79999999999998,169.89999999999998 159.79999999999998,173.6 152.79999999999998,169.89999999999998" fill="#DCE7F5" stroke="#BDCCE1" stroke-opacity="0.38" stroke-width=".42"/>
    <polygon points="166.79999999999998,169.89999999999998 166.79999999999998,172.89999999999998 159.79999999999998,176.6 159.79999999999998,173.6" fill="#CDDCEE"/>
    <polygon points="159.79999999999998,173.6 159.79999999999998,176.6 152.79999999999998,172.89999999999998 152.79999999999998,169.89999999999998" fill="#C1D3E8"/>
  </g><g class="cube" style="animation-delay:0.34s">
    <polygon points="183,167 190,170.7 183,174.4 176,170.7" fill="#DCE7F5" stroke="#BDCCE1" stroke-opacity="0.38" stroke-width=".42"/>
    <polygon points="190,170.7 190,173.7 183,177.4 183,174.4" fill="#CDDCEE"/>
    <polygon points="183,174.4 183,177.4 176,173.7 176,170.7" fill="#C1D3E8"/>
  </g><g class="cube" style="animation-delay:0.11s">
    <polygon points="82.8,167.55 89.8,171.25 82.8,174.95000000000002 75.8,171.25" fill="#DCE7F5" stroke="#BDCCE1" stroke-opacity="0.38" stroke-width=".42"/>
    <polygon points="89.8,171.25 89.8,174.25 82.8,177.95000000000002 82.8,174.95000000000002" fill="#CDDCEE"/>
    <polygon points="82.8,174.95000000000002 82.8,177.95000000000002 75.8,174.25 75.8,171.25" fill="#C1D3E8"/>
  </g><g class="cube" style="animation-delay:0.40s">
    <polygon points="206.20000000000002,167.8 213.20000000000002,171.5 206.20000000000002,175.20000000000002 199.20000000000002,171.5" fill="#DCE7F5" stroke="#BDCCE1" stroke-opacity="0.38" stroke-width=".42"/>
    <polygon points="213.20000000000002,171.5 213.20000000000002,174.5 206.20000000000002,178.20000000000002 206.20000000000002,175.20000000000002" fill="#CDDCEE"/>
    <polygon points="206.20000000000002,175.20000000000002 206.20000000000002,178.20000000000002 199.20000000000002,174.5 199.20000000000002,171.5" fill="#C1D3E8"/>
  </g><g class="cube" style="animation-delay:0.17s">
    <polygon points="106,168.35 113,172.04999999999998 106,175.75 99,172.04999999999998" fill="#DCE7F5" stroke="#BDCCE1" stroke-opacity="0.38" stroke-width=".42"/>
    <polygon points="113,172.04999999999998 113,175.04999999999998 106,178.75 106,175.75" fill="#CDDCEE"/>
    <polygon points="106,175.75 106,178.75 99,175.04999999999998 99,172.04999999999998" fill="#C1D3E8"/>
  </g><g class="cube" style="animation-delay:0.23s">
    <polygon points="129.20000000000002,169.15 136.20000000000002,172.85 129.20000000000002,176.55 122.20000000000002,172.85" fill="#DCE7F5" stroke="#BDCCE1" stroke-opacity="0.38" stroke-width=".42"/>
    <polygon points="136.20000000000002,172.85 136.20000000000002,175.85 129.20000000000002,179.55 129.20000000000002,176.55" fill="#CDDCEE"/>
    <polygon points="129.20000000000002,176.55 129.20000000000002,179.55 122.20000000000002,175.85 122.20000000000002,172.85" fill="#C1D3E8"/>
  </g><g class="cube" style="animation-delay:0.28s">
    <polygon points="152.39999999999998,169.95 159.39999999999998,173.64999999999998 152.39999999999998,177.35 145.39999999999998,173.64999999999998" fill="#DCE7F5" stroke="#BDCCE1" stroke-opacity="0.38" stroke-width=".42"/>
    <polygon points="159.39999999999998,173.64999999999998 159.39999999999998,176.64999999999998 152.39999999999998,180.35 152.39999999999998,177.35" fill="#CDDCEE"/>
    <polygon points="152.39999999999998,177.35 152.39999999999998,180.35 145.39999999999998,176.64999999999998 145.39999999999998,173.64999999999998" fill="#C1D3E8"/>
  </g><g class="cube" style="animation-delay:0.34s">
    <polygon points="175.6,170.75 182.6,174.45 175.6,178.15 168.6,174.45" fill="#DCE7F5" stroke="#BDCCE1" stroke-opacity="0.38" stroke-width=".42"/>
    <polygon points="182.6,174.45 182.6,177.45 175.6,181.15 175.6,178.15" fill="#CDDCEE"/>
    <polygon points="175.6,178.15 175.6,181.15 168.6,177.45 168.6,174.45" fill="#C1D3E8"/>
  </g><g class="cube" style="animation-delay:0.39s">
    <polygon points="198.8,171.55 205.8,175.25 198.8,178.95000000000002 191.8,175.25" fill="#DCE7F5" stroke="#BDCCE1" stroke-opacity="0.38" stroke-width=".42"/>
    <polygon points="205.8,175.25 205.8,178.25 198.8,181.95000000000002 198.8,178.95000000000002" fill="#CDDCEE"/>
    <polygon points="198.8,178.95000000000002 198.8,181.95000000000002 191.8,178.25 191.8,175.25" fill="#C1D3E8"/>
  </g><g class="cube" style="animation-delay:0.16s">
    <polygon points="98.6,172.1 105.6,175.79999999999998 98.6,179.5 91.6,175.79999999999998" fill="#DCE7F5" stroke="#BDCCE1" stroke-opacity="0.38" stroke-width=".42"/>
    <polygon points="105.6,175.79999999999998 105.6,178.79999999999998 98.6,182.5 98.6,179.5" fill="#CDDCEE"/>
    <polygon points="98.6,179.5 98.6,182.5 91.6,178.79999999999998 91.6,175.79999999999998" fill="#C1D3E8"/>
  </g><g class="cube" style="animation-delay:0.45s">
    <polygon points="222.00000000000003,172.35 229.00000000000003,176.04999999999998 222.00000000000003,179.75 215.00000000000003,176.04999999999998" fill="#DCE7F5" stroke="#BDCCE1" stroke-opacity="0.38" stroke-width=".42"/>
    <polygon points="229.00000000000003,176.04999999999998 229.00000000000003,179.04999999999998 222.00000000000003,182.75 222.00000000000003,179.75" fill="#CDDCEE"/>
    <polygon points="222.00000000000003,179.75 222.00000000000003,182.75 215.00000000000003,179.04999999999998 215.00000000000003,176.04999999999998" fill="#C1D3E8"/>
  </g><g class="cube" style="animation-delay:0.22s">
    <polygon points="121.80000000000001,172.9 128.8,176.6 121.80000000000001,180.3 114.80000000000001,176.6" fill="#DCE7F5" stroke="#BDCCE1" stroke-opacity="0.38" stroke-width=".42"/>
    <polygon points="128.8,176.6 128.8,179.6 121.80000000000001,183.3 121.80000000000001,180.3" fill="#CDDCEE"/>
    <polygon points="121.80000000000001,180.3 121.80000000000001,183.3 114.80000000000001,179.6 114.80000000000001,176.6" fill="#C1D3E8"/>
  </g><g class="cube" style="animation-delay:0.28s">
    <polygon points="145,173.7 152,177.39999999999998 145,181.1 138,177.39999999999998" fill="#DCE7F5" stroke="#BDCCE1" stroke-opacity="0.38" stroke-width=".42"/>
    <polygon points="152,177.39999999999998 152,180.39999999999998 145,184.1 145,181.1" fill="#CDDCEE"/>
    <polygon points="145,181.1 145,184.1 138,180.39999999999998 138,177.39999999999998" fill="#C1D3E8"/>
  </g><g class="cube" style="animation-delay:0.33s">
    <polygon points="168.2,174.5 175.2,178.2 168.2,181.9 161.2,178.2" fill="#DCE7F5" stroke="#BDCCE1" stroke-opacity="0.38" stroke-width=".42"/>
    <polygon points="175.2,178.2 175.2,181.2 168.2,184.9 168.2,181.9" fill="#CDDCEE"/>
    <polygon points="168.2,181.9 168.2,184.9 161.2,181.2 161.2,178.2" fill="#C1D3E8"/>
  </g><g class="cube" style="animation-delay:0.39s">
    <polygon points="191.4,175.3 198.4,179 191.4,182.70000000000002 184.4,179" fill="#DCE7F5" stroke="#BDCCE1" stroke-opacity="0.38" stroke-width=".42"/>
    <polygon points="198.4,179 198.4,182 191.4,185.70000000000002 191.4,182.70000000000002" fill="#CDDCEE"/>
    <polygon points="191.4,182.70000000000002 191.4,185.70000000000002 184.4,182 184.4,179" fill="#C1D3E8"/>
  </g><g class="cube" style="animation-delay:0.44s">
    <polygon points="214.60000000000002,176.1 221.60000000000002,179.79999999999998 214.60000000000002,183.5 207.60000000000002,179.79999999999998" fill="#DCE7F5" stroke="#BDCCE1" stroke-opacity="0.38" stroke-width=".42"/>
    <polygon points="221.60000000000002,179.79999999999998 221.60000000000002,182.79999999999998 214.60000000000002,186.5 214.60000000000002,183.5" fill="#CDDCEE"/>
    <polygon points="214.60000000000002,183.5 214.60000000000002,186.5 207.60000000000002,182.79999999999998 207.60000000000002,179.79999999999998" fill="#C1D3E8"/>
  </g><g class="cube" style="animation-delay:0.21s">
    <polygon points="114.4,176.65 121.4,180.35 114.4,184.05 107.4,180.35" fill="#DCE7F5" stroke="#BDCCE1" stroke-opacity="0.38" stroke-width=".42"/>
    <polygon points="121.4,180.35 121.4,183.35 114.4,187.05 114.4,184.05" fill="#CDDCEE"/>
    <polygon points="114.4,184.05 114.4,187.05 107.4,183.35 107.4,180.35" fill="#C1D3E8"/>
  </g><g class="cube" style="animation-delay:0.50s">
    <polygon points="237.8,176.9 244.8,180.6 237.8,184.3 230.8,180.6" fill="#DCE7F5" stroke="#BDCCE1" stroke-opacity="0.38" stroke-width=".42"/>
    <polygon points="244.8,180.6 244.8,183.6 237.8,187.3 237.8,184.3" fill="#CDDCEE"/>
    <polygon points="237.8,184.3 237.8,187.3 230.8,183.6 230.8,180.6" fill="#C1D3E8"/>
  </g><g class="cube" style="animation-delay:0.27s">
    <polygon points="137.6,177.45 144.6,181.14999999999998 137.6,184.85 130.6,181.14999999999998" fill="#DCE7F5" stroke="#BDCCE1" stroke-opacity="0.38" stroke-width=".42"/>
    <polygon points="144.6,181.14999999999998 144.6,184.14999999999998 137.6,187.85 137.6,184.85" fill="#CDDCEE"/>
    <polygon points="137.6,184.85 137.6,187.85 130.6,184.14999999999998 130.6,181.14999999999998" fill="#C1D3E8"/>
  </g><g class="cube" style="animation-delay:0.32s">
    <polygon points="160.8,178.25 167.8,181.95 160.8,185.65 153.8,181.95" fill="#DCE7F5" stroke="#BDCCE1" stroke-opacity="0.38" stroke-width=".42"/>
    <polygon points="167.8,181.95 167.8,184.95 160.8,188.65 160.8,185.65" fill="#CDDCEE"/>
    <polygon points="160.8,185.65 160.8,188.65 153.8,184.95 153.8,181.95" fill="#C1D3E8"/>
  </g><g class="cube" style="animation-delay:0.38s">
    <polygon points="184,179.05 191,182.75 184,186.45000000000002 177,182.75" fill="#DCE7F5" stroke="#BDCCE1" stroke-opacity="0.38" stroke-width=".42"/>
    <polygon points="191,182.75 191,185.75 184,189.45000000000002 184,186.45000000000002" fill="#CDDCEE"/>
    <polygon points="184,186.45000000000002 184,189.45000000000002 177,185.75 177,182.75" fill="#C1D3E8"/>
  </g><g class="cube" style="animation-delay:0.44s">
    <polygon points="207.20000000000002,179.85 214.20000000000002,183.54999999999998 207.20000000000002,187.25 200.20000000000002,183.54999999999998" fill="#DCE7F5" stroke="#BDCCE1" stroke-opacity="0.38" stroke-width=".42"/>
    <polygon points="214.20000000000002,183.54999999999998 214.20000000000002,186.54999999999998 207.20000000000002,190.25 207.20000000000002,187.25" fill="#CDDCEE"/>
    <polygon points="207.20000000000002,187.25 207.20000000000002,190.25 200.20000000000002,186.54999999999998 200.20000000000002,183.54999999999998" fill="#C1D3E8"/>
  </g><g class="cube" style="animation-delay:0.49s">
    <polygon points="230.4,180.65 237.4,184.35 230.4,188.05 223.4,184.35" fill="#DCE7F5" stroke="#BDCCE1" stroke-opacity="0.38" stroke-width=".42"/>
    <polygon points="237.4,184.35 237.4,187.35 230.4,191.05 230.4,188.05" fill="#CDDCEE"/>
    <polygon points="230.4,188.05 230.4,191.05 223.4,187.35 223.4,184.35" fill="#C1D3E8"/>
  </g><g class="cube" style="animation-delay:0.26s">
    <polygon points="130.2,181.2 137.2,184.89999999999998 130.2,188.6 123.19999999999999,184.89999999999998" fill="#DCE7F5" stroke="#BDCCE1" stroke-opacity="0.38" stroke-width=".42"/>
    <polygon points="137.2,184.89999999999998 137.2,187.89999999999998 130.2,191.6 130.2,188.6" fill="#CDDCEE"/>
    <polygon points="130.2,188.6 130.2,191.6 123.19999999999999,187.89999999999998 123.19999999999999,184.89999999999998" fill="#C1D3E8"/>
  </g><g class="cube" style="animation-delay:0.55s">
    <polygon points="253.60000000000002,181.45 260.6,185.14999999999998 253.60000000000002,188.85 246.60000000000002,185.14999999999998" fill="#DCE7F5" stroke="#BDCCE1" stroke-opacity="0.38" stroke-width=".42"/>
    <polygon points="260.6,185.14999999999998 260.6,188.14999999999998 253.60000000000002,191.85 253.60000000000002,188.85" fill="#CDDCEE"/>
    <polygon points="253.60000000000002,188.85 253.60000000000002,191.85 246.60000000000002,188.14999999999998 246.60000000000002,185.14999999999998" fill="#C1D3E8"/>
  </g><g class="cube" style="animation-delay:0.32s">
    <polygon points="153.4,182 160.4,185.7 153.4,189.4 146.4,185.7" fill="#DCE7F5" stroke="#BDCCE1" stroke-opacity="0.38" stroke-width=".42"/>
    <polygon points="160.4,185.7 160.4,188.7 153.4,192.4 153.4,189.4" fill="#CDDCEE"/>
    <polygon points="153.4,189.4 153.4,192.4 146.4,188.7 146.4,185.7" fill="#C1D3E8"/>
  </g><g class="cube" style="animation-delay:0.37s">
    <polygon points="176.60000000000002,182.8 183.60000000000002,186.5 176.60000000000002,190.20000000000002 169.60000000000002,186.5" fill="#DCE7F5" stroke="#BDCCE1" stroke-opacity="0.38" stroke-width=".42"/>
    <polygon points="183.60000000000002,186.5 183.60000000000002,189.5 176.60000000000002,193.20000000000002 176.60000000000002,190.20000000000002" fill="#CDDCEE"/>
    <polygon points="176.60000000000002,190.20000000000002 176.60000000000002,193.20000000000002 169.60000000000002,189.5 169.60000000000002,186.5" fill="#C1D3E8"/>
  </g><g class="cube" style="animation-delay:0.43s">
    <polygon points="199.8,183.6 206.8,187.29999999999998 199.8,191 192.8,187.29999999999998" fill="#DCE7F5" stroke="#BDCCE1" stroke-opacity="0.38" stroke-width=".42"/>
    <polygon points="206.8,187.29999999999998 206.8,190.29999999999998 199.8,194 199.8,191" fill="#CDDCEE"/>
    <polygon points="199.8,191 199.8,194 192.8,190.29999999999998 192.8,187.29999999999998" fill="#C1D3E8"/>
  </g><g class="cube" style="animation-delay:0.48s">
    <polygon points="223,184.4 230,188.1 223,191.8 216,188.1" fill="#DCE7F5" stroke="#BDCCE1" stroke-opacity="0.38" stroke-width=".42"/>
    <polygon points="230,188.1 230,191.1 223,194.8 223,191.8" fill="#CDDCEE"/>
    <polygon points="223,191.8 223,194.8 216,191.1 216,188.1" fill="#C1D3E8"/>
  </g><g class="cube" style="animation-delay:0.54s">
    <polygon points="246.20000000000002,185.2 253.20000000000002,188.89999999999998 246.20000000000002,192.6 239.20000000000002,188.89999999999998" fill="#DCE7F5" stroke="#BDCCE1" stroke-opacity="0.38" stroke-width=".42"/>
    <polygon points="253.20000000000002,188.89999999999998 253.20000000000002,191.89999999999998 246.20000000000002,195.6 246.20000000000002,192.6" fill="#CDDCEE"/>
    <polygon points="246.20000000000002,192.6 246.20000000000002,195.6 239.20000000000002,191.89999999999998 239.20000000000002,188.89999999999998" fill="#C1D3E8"/>
  </g><g class="cube" style="animation-delay:0.31s">
    <polygon points="146,185.75 153,189.45 146,193.15 139,189.45" fill="#DCE7F5" stroke="#BDCCE1" stroke-opacity="0.38" stroke-width=".42"/>
    <polygon points="153,189.45 153,192.45 146,196.15 146,193.15" fill="#CDDCEE"/>
    <polygon points="146,193.15 146,196.15 139,192.45 139,189.45" fill="#C1D3E8"/>
  </g><g class="cube" style="animation-delay:0.60s">
    <polygon points="269.4,186 276.4,189.7 269.4,193.4 262.4,189.7" fill="#DCE7F5" stroke="#BDCCE1" stroke-opacity="0.38" stroke-width=".42"/>
    <polygon points="276.4,189.7 276.4,192.7 269.4,196.4 269.4,193.4" fill="#CDDCEE"/>
    <polygon points="269.4,193.4 269.4,196.4 262.4,192.7 262.4,189.7" fill="#C1D3E8"/>
  </g><g class="cube" style="animation-delay:0.37s">
    <polygon points="169.20000000000002,186.55 176.20000000000002,190.25 169.20000000000002,193.95000000000002 162.20000000000002,190.25" fill="#DCE7F5" stroke="#BDCCE1" stroke-opacity="0.38" stroke-width=".42"/>
    <polygon points="176.20000000000002,190.25 176.20000000000002,193.25 169.20000000000002,196.95000000000002 169.20000000000002,193.95000000000002" fill="#CDDCEE"/>
    <polygon points="169.20000000000002,193.95000000000002 169.20000000000002,196.95000000000002 162.20000000000002,193.25 162.20000000000002,190.25" fill="#C1D3E8"/>
  </g><g class="cube" style="animation-delay:0.42s">
    <polygon points="192.40000000000003,187.35 199.40000000000003,191.04999999999998 192.40000000000003,194.75 185.40000000000003,191.04999999999998" fill="#DCE7F5" stroke="#BDCCE1" stroke-opacity="0.38" stroke-width=".42"/>
    <polygon points="199.40000000000003,191.04999999999998 199.40000000000003,194.04999999999998 192.40000000000003,197.75 192.40000000000003,194.75" fill="#CDDCEE"/>
    <polygon points="192.40000000000003,194.75 192.40000000000003,197.75 185.40000000000003,194.04999999999998 185.40000000000003,191.04999999999998" fill="#C1D3E8"/>
  </g><g class="cube" style="animation-delay:0.48s">
    <polygon points="215.60000000000002,188.15 222.60000000000002,191.85 215.60000000000002,195.55 208.60000000000002,191.85" fill="#DCE7F5" stroke="#BDCCE1" stroke-opacity="0.38" stroke-width=".42"/>
    <polygon points="222.60000000000002,191.85 222.60000000000002,194.85 215.60000000000002,198.55 215.60000000000002,195.55" fill="#CDDCEE"/>
    <polygon points="215.60000000000002,195.55 215.60000000000002,198.55 208.60000000000002,194.85 208.60000000000002,191.85" fill="#C1D3E8"/>
  </g><g class="cube" style="animation-delay:0.53s">
    <polygon points="238.8,188.95 245.8,192.64999999999998 238.8,196.35 231.8,192.64999999999998" fill="#DCE7F5" stroke="#BDCCE1" stroke-opacity="0.38" stroke-width=".42"/>
    <polygon points="245.8,192.64999999999998 245.8,195.64999999999998 238.8,199.35 238.8,196.35" fill="#CDDCEE"/>
    <polygon points="238.8,196.35 238.8,199.35 231.8,195.64999999999998 231.8,192.64999999999998" fill="#C1D3E8"/>
  </g><g class="cube" style="animation-delay:0.59s">
    <polygon points="262,189.75 269,193.45 262,197.15 255,193.45" fill="#DCE7F5" stroke="#BDCCE1" stroke-opacity="0.38" stroke-width=".42"/>
    <polygon points="269,193.45 269,196.45 262,200.15 262,197.15" fill="#CDDCEE"/>
    <polygon points="262,197.15 262,200.15 255,196.45 255,193.45" fill="#C1D3E8"/>
  </g><g class="cube" style="animation-delay:0.36s">
    <polygon points="161.8,190.3 168.8,194 161.8,197.70000000000002 154.8,194" fill="#DCE7F5" stroke="#BDCCE1" stroke-opacity="0.38" stroke-width=".42"/>
    <polygon points="168.8,194 168.8,197 161.8,200.70000000000002 161.8,197.70000000000002" fill="#CDDCEE"/>
    <polygon points="161.8,197.70000000000002 161.8,200.70000000000002 154.8,197 154.8,194" fill="#C1D3E8"/>
  </g><g class="cube" style="animation-delay:0.65s">
    <polygon points="285.20000000000005,190.55 292.20000000000005,194.25 285.20000000000005,197.95000000000002 278.20000000000005,194.25" fill="#DCE7F5" stroke="#BDCCE1" stroke-opacity="0.38" stroke-width=".42"/>
    <polygon points="292.20000000000005,194.25 292.20000000000005,197.25 285.20000000000005,200.95000000000002 285.20000000000005,197.95000000000002" fill="#CDDCEE"/>
    <polygon points="285.20000000000005,197.95000000000002 285.20000000000005,200.95000000000002 278.20000000000005,197.25 278.20000000000005,194.25" fill="#C1D3E8"/>
  </g><g class="cube" style="animation-delay:0.42s">
    <polygon points="185.00000000000003,191.1 192.00000000000003,194.79999999999998 185.00000000000003,198.5 178.00000000000003,194.79999999999998" fill="#DCE7F5" stroke="#BDCCE1" stroke-opacity="0.38" stroke-width=".42"/>
    <polygon points="192.00000000000003,194.79999999999998 192.00000000000003,197.79999999999998 185.00000000000003,201.5 185.00000000000003,198.5" fill="#CDDCEE"/>
    <polygon points="185.00000000000003,198.5 185.00000000000003,201.5 178.00000000000003,197.79999999999998 178.00000000000003,194.79999999999998" fill="#C1D3E8"/>
  </g><g class="cube" style="animation-delay:0.47s">
    <polygon points="208.20000000000002,191.9 215.20000000000002,195.6 208.20000000000002,199.3 201.20000000000002,195.6" fill="#DCE7F5" stroke="#BDCCE1" stroke-opacity="0.38" stroke-width=".42"/>
    <polygon points="215.20000000000002,195.6 215.20000000000002,198.6 208.20000000000002,202.3 208.20000000000002,199.3" fill="#CDDCEE"/>
    <polygon points="208.20000000000002,199.3 208.20000000000002,202.3 201.20000000000002,198.6 201.20000000000002,195.6" fill="#C1D3E8"/>
  </g><g class="cube" style="animation-delay:0.53s">
    <polygon points="231.40000000000003,192.7 238.40000000000003,196.39999999999998 231.40000000000003,200.1 224.40000000000003,196.39999999999998" fill="#DCE7F5" stroke="#BDCCE1" stroke-opacity="0.38" stroke-width=".42"/>
    <polygon points="238.40000000000003,196.39999999999998 238.40000000000003,199.39999999999998 231.40000000000003,203.1 231.40000000000003,200.1" fill="#CDDCEE"/>
    <polygon points="231.40000000000003,200.1 231.40000000000003,203.1 224.40000000000003,199.39999999999998 224.40000000000003,196.39999999999998" fill="#C1D3E8"/>
  </g><g class="cube" style="animation-delay:0.58s">
    <polygon points="254.6,193.5 261.6,197.2 254.6,200.9 247.6,197.2" fill="#DCE7F5" stroke="#BDCCE1" stroke-opacity="0.38" stroke-width=".42"/>
    <polygon points="261.6,197.2 261.6,200.2 254.6,203.9 254.6,200.9" fill="#CDDCEE"/>
    <polygon points="254.6,200.9 254.6,203.9 247.6,200.2 247.6,197.2" fill="#C1D3E8"/>
  </g><g class="cube" style="animation-delay:0.64s">
    <polygon points="277.8,194.3 284.8,198 277.8,201.70000000000002 270.8,198" fill="#DCE7F5" stroke="#BDCCE1" stroke-opacity="0.38" stroke-width=".42"/>
    <polygon points="284.8,198 284.8,201 277.8,204.70000000000002 277.8,201.70000000000002" fill="#CDDCEE"/>
    <polygon points="277.8,201.70000000000002 277.8,204.70000000000002 270.8,201 270.8,198" fill="#C1D3E8"/>
  </g><g class="cube" style="animation-delay:0.41s">
    <polygon points="177.60000000000002,194.85 184.60000000000002,198.54999999999998 177.60000000000002,202.25 170.60000000000002,198.54999999999998" fill="#DCE7F5" stroke="#BDCCE1" stroke-opacity="0.38" stroke-width=".42"/>
    <polygon points="184.60000000000002,198.54999999999998 184.60000000000002,201.54999999999998 177.60000000000002,205.25 177.60000000000002,202.25" fill="#CDDCEE"/>
    <polygon points="177.60000000000002,202.25 177.60000000000002,205.25 170.60000000000002,201.54999999999998 170.60000000000002,198.54999999999998" fill="#C1D3E8"/>
  </g><g class="cube" style="animation-delay:0.69s">
    <polygon points="301,195.1 308,198.79999999999998 301,202.5 294,198.79999999999998" fill="#DCE7F5" stroke="#BDCCE1" stroke-opacity="0.38" stroke-width=".42"/>
    <polygon points="308,198.79999999999998 308,201.79999999999998 301,205.5 301,202.5" fill="#CDDCEE"/>
    <polygon points="301,202.5 301,205.5 294,201.79999999999998 294,198.79999999999998" fill="#C1D3E8"/>
  </g><g class="cube" style="animation-delay:0.46s">
    <polygon points="200.8,195.65 207.8,199.35 200.8,203.05 193.8,199.35" fill="#DCE7F5" stroke="#BDCCE1" stroke-opacity="0.38" stroke-width=".42"/>
    <polygon points="207.8,199.35 207.8,202.35 200.8,206.05 200.8,203.05" fill="#CDDCEE"/>
    <polygon points="200.8,203.05 200.8,206.05 193.8,202.35 193.8,199.35" fill="#C1D3E8"/>
  </g><g class="cube" style="animation-delay:0.52s">
    <polygon points="224.00000000000003,196.45 231.00000000000003,200.14999999999998 224.00000000000003,203.85 217.00000000000003,200.14999999999998" fill="#DCE7F5" stroke="#BDCCE1" stroke-opacity="0.38" stroke-width=".42"/>
    <polygon points="231.00000000000003,200.14999999999998 231.00000000000003,203.14999999999998 224.00000000000003,206.85 224.00000000000003,203.85" fill="#CDDCEE"/>
    <polygon points="224.00000000000003,203.85 224.00000000000003,206.85 217.00000000000003,203.14999999999998 217.00000000000003,200.14999999999998" fill="#C1D3E8"/>
  </g><g class="cube" style="animation-delay:0.58s">
    <polygon points="247.2,197.25 254.2,200.95 247.2,204.65 240.2,200.95" fill="#DCE7F5" stroke="#BDCCE1" stroke-opacity="0.38" stroke-width=".42"/>
    <polygon points="254.2,200.95 254.2,203.95 247.2,207.65 247.2,204.65" fill="#CDDCEE"/>
    <polygon points="247.2,204.65 247.2,207.65 240.2,203.95 240.2,200.95" fill="#C1D3E8"/>
  </g><g class="cube" style="animation-delay:0.63s">
    <polygon points="270.40000000000003,198.05 277.40000000000003,201.75 270.40000000000003,205.45000000000002 263.40000000000003,201.75" fill="#DCE7F5" stroke="#BDCCE1" stroke-opacity="0.38" stroke-width=".42"/>
    <polygon points="277.40000000000003,201.75 277.40000000000003,204.75 270.40000000000003,208.45000000000002 270.40000000000003,205.45000000000002" fill="#CDDCEE"/>
    <polygon points="270.40000000000003,205.45000000000002 270.40000000000003,208.45000000000002 263.40000000000003,204.75 263.40000000000003,201.75" fill="#C1D3E8"/>
  </g><g class="cube" style="animation-delay:0.69s">
    <polygon points="293.6,198.85 300.6,202.54999999999998 293.6,206.25 286.6,202.54999999999998" fill="#DCE7F5" stroke="#BDCCE1" stroke-opacity="0.38" stroke-width=".42"/>
    <polygon points="300.6,202.54999999999998 300.6,205.54999999999998 293.6,209.25 293.6,206.25" fill="#CDDCEE"/>
    <polygon points="293.6,206.25 293.6,209.25 286.6,205.54999999999998 286.6,202.54999999999998" fill="#C1D3E8"/>
  </g><g class="cube" style="animation-delay:0.46s">
    <polygon points="193.4,199.4 200.4,203.1 193.4,206.8 186.4,203.1" fill="#DCE7F5" stroke="#BDCCE1" stroke-opacity="0.38" stroke-width=".42"/>
    <polygon points="200.4,203.1 200.4,206.1 193.4,209.8 193.4,206.8" fill="#CDDCEE"/>
    <polygon points="193.4,206.8 193.4,209.8 186.4,206.1 186.4,203.1" fill="#C1D3E8"/>
  </g><g class="cube" style="animation-delay:0.74s">
    <polygon points="316.79999999999995,199.65 323.79999999999995,203.35 316.79999999999995,207.05 309.79999999999995,203.35" fill="#DCE7F5" stroke="#BDCCE1" stroke-opacity="0.38" stroke-width=".42"/>
    <polygon points="323.79999999999995,203.35 323.79999999999995,206.35 316.79999999999995,210.05 316.79999999999995,207.05" fill="#CDDCEE"/>
    <polygon points="316.79999999999995,207.05 316.79999999999995,210.05 309.79999999999995,206.35 309.79999999999995,203.35" fill="#C1D3E8"/>
  </g><g class="cube" style="animation-delay:0.51s">
    <polygon points="216.60000000000002,200.2 223.60000000000002,203.89999999999998 216.60000000000002,207.6 209.60000000000002,203.89999999999998" fill="#DCE7F5" stroke="#BDCCE1" stroke-opacity="0.38" stroke-width=".42"/>
    <polygon points="223.60000000000002,203.89999999999998 223.60000000000002,206.89999999999998 216.60000000000002,210.6 216.60000000000002,207.6" fill="#CDDCEE"/>
    <polygon points="216.60000000000002,207.6 216.60000000000002,210.6 209.60000000000002,206.89999999999998 209.60000000000002,203.89999999999998" fill="#C1D3E8"/>
  </g><g class="cube" style="animation-delay:0.57s">
    <polygon points="239.8,201 246.8,204.7 239.8,208.4 232.8,204.7" fill="#DCE7F5" stroke="#BDCCE1" stroke-opacity="0.38" stroke-width=".42"/>
    <polygon points="246.8,204.7 246.8,207.7 239.8,211.4 239.8,208.4" fill="#CDDCEE"/>
    <polygon points="239.8,208.4 239.8,211.4 232.8,207.7 232.8,204.7" fill="#C1D3E8"/>
  </g><g class="cube" style="animation-delay:0.63s">
    <polygon points="263,201.8 270,205.5 263,209.20000000000002 256,205.5" fill="#DCE7F5" stroke="#BDCCE1" stroke-opacity="0.38" stroke-width=".42"/>
    <polygon points="270,205.5 270,208.5 263,212.20000000000002 263,209.20000000000002" fill="#CDDCEE"/>
    <polygon points="263,209.20000000000002 263,212.20000000000002 256,208.5 256,205.5" fill="#C1D3E8"/>
  </g><g class="cube" style="animation-delay:0.68s">
    <polygon points="286.20000000000005,202.6 293.20000000000005,206.29999999999998 286.20000000000005,210 279.20000000000005,206.29999999999998" fill="#DCE7F5" stroke="#BDCCE1" stroke-opacity="0.38" stroke-width=".42"/>
    <polygon points="293.20000000000005,206.29999999999998 293.20000000000005,209.29999999999998 286.20000000000005,213 286.20000000000005,210" fill="#CDDCEE"/>
    <polygon points="286.20000000000005,210 286.20000000000005,213 279.20000000000005,209.29999999999998 279.20000000000005,206.29999999999998" fill="#C1D3E8"/>
  </g><g class="cube" style="animation-delay:0.74s">
    <polygon points="309.4,203.4 316.4,207.1 309.4,210.8 302.4,207.1" fill="#DCE7F5" stroke="#BDCCE1" stroke-opacity="0.38" stroke-width=".42"/>
    <polygon points="316.4,207.1 316.4,210.1 309.4,213.8 309.4,210.8" fill="#CDDCEE"/>
    <polygon points="309.4,210.8 309.4,213.8 302.4,210.1 302.4,207.1" fill="#C1D3E8"/>
  </g><g class="cube" style="animation-delay:0.51s">
    <polygon points="209.20000000000002,203.95 216.20000000000002,207.64999999999998 209.20000000000002,211.35 202.20000000000002,207.64999999999998" fill="#DCE7F5" stroke="#BDCCE1" stroke-opacity="0.38" stroke-width=".42"/>
    <polygon points="216.20000000000002,207.64999999999998 216.20000000000002,210.64999999999998 209.20000000000002,214.35 209.20000000000002,211.35" fill="#CDDCEE"/>
    <polygon points="209.20000000000002,211.35 209.20000000000002,214.35 202.20000000000002,210.64999999999998 202.20000000000002,207.64999999999998" fill="#C1D3E8"/>
  </g><g class="cube" style="animation-delay:0.79s">
    <polygon points="332.6,204.2 339.6,207.89999999999998 332.6,211.6 325.6,207.89999999999998" fill="#DCE7F5" stroke="#BDCCE1" stroke-opacity="0.38" stroke-width=".42"/>
    <polygon points="339.6,207.89999999999998 339.6,210.89999999999998 332.6,214.6 332.6,211.6" fill="#CDDCEE"/>
    <polygon points="332.6,211.6 332.6,214.6 325.6,210.89999999999998 325.6,207.89999999999998" fill="#C1D3E8"/>
  </g><g class="cube" style="animation-delay:0.56s">
    <polygon points="232.4,204.75 239.4,208.45 232.4,212.15 225.4,208.45" fill="#DCE7F5" stroke="#BDCCE1" stroke-opacity="0.38" stroke-width=".42"/>
    <polygon points="239.4,208.45 239.4,211.45 232.4,215.15 232.4,212.15" fill="#CDDCEE"/>
    <polygon points="232.4,212.15 232.4,215.15 225.4,211.45 225.4,208.45" fill="#C1D3E8"/>
  </g><g class="cube" style="animation-delay:0.62s">
    <polygon points="255.60000000000002,205.55 262.6,209.25 255.60000000000002,212.95000000000002 248.60000000000002,209.25" fill="#DCE7F5" stroke="#BDCCE1" stroke-opacity="0.38" stroke-width=".42"/>
    <polygon points="262.6,209.25 262.6,212.25 255.60000000000002,215.95000000000002 255.60000000000002,212.95000000000002" fill="#CDDCEE"/>
    <polygon points="255.60000000000002,212.95000000000002 255.60000000000002,215.95000000000002 248.60000000000002,212.25 248.60000000000002,209.25" fill="#C1D3E8"/>
  </g><g class="cube" style="animation-delay:0.67s">
    <polygon points="278.8,206.35 285.8,210.04999999999998 278.8,213.75 271.8,210.04999999999998" fill="#DCE7F5" stroke="#BDCCE1" stroke-opacity="0.38" stroke-width=".42"/>
    <polygon points="285.8,210.04999999999998 285.8,213.04999999999998 278.8,216.75 278.8,213.75" fill="#CDDCEE"/>
    <polygon points="278.8,213.75 278.8,216.75 271.8,213.04999999999998 271.8,210.04999999999998" fill="#C1D3E8"/>
  </g><g class="cube" style="animation-delay:0.73s">
    <polygon points="302,207.15 309,210.85 302,214.55 295,210.85" fill="#DCE7F5" stroke="#BDCCE1" stroke-opacity="0.38" stroke-width=".42"/>
    <polygon points="309,210.85 309,213.85 302,217.55 302,214.55" fill="#CDDCEE"/>
    <polygon points="302,214.55 302,217.55 295,213.85 295,210.85" fill="#C1D3E8"/>
  </g><g class="cube" style="animation-delay:0.79s">
    <polygon points="325.20000000000005,207.95 332.20000000000005,211.64999999999998 325.20000000000005,215.35 318.20000000000005,211.64999999999998" fill="#DCE7F5" stroke="#BDCCE1" stroke-opacity="0.38" stroke-width=".42"/>
    <polygon points="332.20000000000005,211.64999999999998 332.20000000000005,214.64999999999998 325.20000000000005,218.35 325.20000000000005,215.35" fill="#CDDCEE"/>
    <polygon points="325.20000000000005,215.35 325.20000000000005,218.35 318.20000000000005,214.64999999999998 318.20000000000005,211.64999999999998" fill="#C1D3E8"/>
  </g><g class="cube" style="animation-delay:0.56s">
    <polygon points="225,208.5 232,212.2 225,215.9 218,212.2" fill="#DCE7F5" stroke="#BDCCE1" stroke-opacity="0.38" stroke-width=".42"/>
    <polygon points="232,212.2 232,215.2 225,218.9 225,215.9" fill="#CDDCEE"/>
    <polygon points="225,215.9 225,218.9 218,215.2 218,212.2" fill="#C1D3E8"/>
  </g><g class="cube" style="animation-delay:0.84s">
    <polygon points="348.4,208.75 355.4,212.45 348.4,216.15 341.4,212.45" fill="#DCE7F5" stroke="#BDCCE1" stroke-opacity="0.38" stroke-width=".42"/>
    <polygon points="355.4,212.45 355.4,215.45 348.4,219.15 348.4,216.15" fill="#CDDCEE"/>
    <polygon points="348.4,216.15 348.4,219.15 341.4,215.45 341.4,212.45" fill="#C1D3E8"/>
  </g><g class="cube" style="animation-delay:0.61s">
    <polygon points="248.20000000000002,209.3 255.20000000000002,213 248.20000000000002,216.70000000000002 241.20000000000002,213" fill="#DCE7F5" stroke="#BDCCE1" stroke-opacity="0.38" stroke-width=".42"/>
    <polygon points="255.20000000000002,213 255.20000000000002,216 248.20000000000002,219.70000000000002 248.20000000000002,216.70000000000002" fill="#CDDCEE"/>
    <polygon points="248.20000000000002,216.70000000000002 248.20000000000002,219.70000000000002 241.20000000000002,216 241.20000000000002,213" fill="#C1D3E8"/>
  </g><g class="cube" style="animation-delay:0.67s">
    <polygon points="271.40000000000003,210.1 278.40000000000003,213.79999999999998 271.40000000000003,217.5 264.40000000000003,213.79999999999998" fill="#DCE7F5" stroke="#BDCCE1" stroke-opacity="0.38" stroke-width=".42"/>
    <polygon points="278.40000000000003,213.79999999999998 278.40000000000003,216.79999999999998 271.40000000000003,220.5 271.40000000000003,217.5" fill="#CDDCEE"/>
    <polygon points="271.40000000000003,217.5 271.40000000000003,220.5 264.40000000000003,216.79999999999998 264.40000000000003,213.79999999999998" fill="#C1D3E8"/>
  </g><g class="cube" style="animation-delay:0.72s">
    <polygon points="294.59999999999997,210.9 301.59999999999997,214.6 294.59999999999997,218.3 287.59999999999997,214.6" fill="#DCE7F5" stroke="#BDCCE1" stroke-opacity="0.38" stroke-width=".42"/>
    <polygon points="301.59999999999997,214.6 301.59999999999997,217.6 294.59999999999997,221.3 294.59999999999997,218.3" fill="#CDDCEE"/>
    <polygon points="294.59999999999997,218.3 294.59999999999997,221.3 287.59999999999997,217.6 287.59999999999997,214.6" fill="#C1D3E8"/>
  </g><g class="cube" style="animation-delay:0.78s">
    <polygon points="317.80000000000007,211.7 324.80000000000007,215.39999999999998 317.80000000000007,219.1 310.80000000000007,215.39999999999998" fill="#DCE7F5" stroke="#BDCCE1" stroke-opacity="0.38" stroke-width=".42"/>
    <polygon points="324.80000000000007,215.39999999999998 324.80000000000007,218.39999999999998 317.80000000000007,222.1 317.80000000000007,219.1" fill="#CDDCEE"/>
    <polygon points="317.80000000000007,219.1 317.80000000000007,222.1 310.80000000000007,218.39999999999998 310.80000000000007,215.39999999999998" fill="#C1D3E8"/>
  </g><g class="cube" style="animation-delay:0.83s">
    <polygon points="341,212.5 348,216.2 341,219.9 334,216.2" fill="#DCE7F5" stroke="#BDCCE1" stroke-opacity="0.38" stroke-width=".42"/>
    <polygon points="348,216.2 348,219.2 341,222.9 341,219.9" fill="#CDDCEE"/>
    <polygon points="341,219.9 341,222.9 334,219.2 334,216.2" fill="#C1D3E8"/>
  </g><g class="cube" style="animation-delay:0.60s">
    <polygon points="240.8,213.05 247.8,216.75 240.8,220.45000000000002 233.8,216.75" fill="#DCE7F5" stroke="#BDCCE1" stroke-opacity="0.38" stroke-width=".42"/>
    <polygon points="247.8,216.75 247.8,219.75 240.8,223.45000000000002 240.8,220.45000000000002" fill="#CDDCEE"/>
    <polygon points="240.8,220.45000000000002 240.8,223.45000000000002 233.8,219.75 233.8,216.75" fill="#C1D3E8"/>
  </g><g class="cube" style="animation-delay:0.89s">
    <polygon points="364.20000000000005,213.3 371.20000000000005,217 364.20000000000005,220.70000000000002 357.20000000000005,217" fill="#DCE7F5" stroke="#BDCCE1" stroke-opacity="0.38" stroke-width=".42"/>
    <polygon points="371.20000000000005,217 371.20000000000005,220 364.20000000000005,223.70000000000002 364.20000000000005,220.70000000000002" fill="#CDDCEE"/>
    <polygon points="364.20000000000005,220.70000000000002 364.20000000000005,223.70000000000002 357.20000000000005,220 357.20000000000005,217" fill="#C1D3E8"/>
  </g><g class="cube" style="animation-delay:0.66s">
    <polygon points="264,213.85 271,217.54999999999998 264,221.25 257,217.54999999999998" fill="#DCE7F5" stroke="#BDCCE1" stroke-opacity="0.38" stroke-width=".42"/>
    <polygon points="271,217.54999999999998 271,220.54999999999998 264,224.25 264,221.25" fill="#CDDCEE"/>
    <polygon points="264,221.25 264,224.25 257,220.54999999999998 257,217.54999999999998" fill="#C1D3E8"/>
  </g><g class="cube" style="animation-delay:0.72s">
    <polygon points="287.2,214.65 294.2,218.35 287.2,222.05 280.2,218.35" fill="#DCE7F5" stroke="#BDCCE1" stroke-opacity="0.38" stroke-width=".42"/>
    <polygon points="294.2,218.35 294.2,221.35 287.2,225.05 287.2,222.05" fill="#CDDCEE"/>
    <polygon points="287.2,222.05 287.2,225.05 280.2,221.35 280.2,218.35" fill="#C1D3E8"/>
  </g><g class="cube" style="animation-delay:0.77s">
    <polygon points="310.40000000000003,215.45 317.40000000000003,219.14999999999998 310.40000000000003,222.85 303.40000000000003,219.14999999999998" fill="#DCE7F5" stroke="#BDCCE1" stroke-opacity="0.38" stroke-width=".42"/>
    <polygon points="317.40000000000003,219.14999999999998 317.40000000000003,222.14999999999998 310.40000000000003,225.85 310.40000000000003,222.85" fill="#CDDCEE"/>
    <polygon points="310.40000000000003,222.85 310.40000000000003,225.85 303.40000000000003,222.14999999999998 303.40000000000003,219.14999999999998" fill="#C1D3E8"/>
  </g><g class="cube" style="animation-delay:0.83s">
    <polygon points="333.6,216.25 340.6,219.95 333.6,223.65 326.6,219.95" fill="#DCE7F5" stroke="#BDCCE1" stroke-opacity="0.38" stroke-width=".42"/>
    <polygon points="340.6,219.95 340.6,222.95 333.6,226.65 333.6,223.65" fill="#CDDCEE"/>
    <polygon points="333.6,223.65 333.6,226.65 326.6,222.95 326.6,219.95" fill="#C1D3E8"/>
  </g><g class="cube" style="animation-delay:0.88s">
    <polygon points="356.8,217.05 363.8,220.75 356.8,224.45000000000002 349.8,220.75" fill="#DCE7F5" stroke="#BDCCE1" stroke-opacity="0.38" stroke-width=".42"/>
    <polygon points="363.8,220.75 363.8,223.75 356.8,227.45000000000002 356.8,224.45000000000002" fill="#CDDCEE"/>
    <polygon points="356.8,224.45000000000002 356.8,227.45000000000002 349.8,223.75 349.8,220.75" fill="#C1D3E8"/>
  </g><g class="cube" style="animation-delay:0.65s">
    <polygon points="256.6,217.6 263.6,221.29999999999998 256.6,225 249.60000000000002,221.29999999999998" fill="#DCE7F5" stroke="#BDCCE1" stroke-opacity="0.38" stroke-width=".42"/>
    <polygon points="263.6,221.29999999999998 263.6,224.29999999999998 256.6,228 256.6,225" fill="#CDDCEE"/>
    <polygon points="256.6,225 256.6,228 249.60000000000002,224.29999999999998 249.60000000000002,221.29999999999998" fill="#C1D3E8"/>
  </g><g class="cube" style="animation-delay:0.94s">
    <polygon points="380,217.85 387,221.54999999999998 380,225.25 373,221.54999999999998" fill="#DCE7F5" stroke="#BDCCE1" stroke-opacity="0.38" stroke-width=".42"/>
    <polygon points="387,221.54999999999998 387,224.54999999999998 380,228.25 380,225.25" fill="#CDDCEE"/>
    <polygon points="380,225.25 380,228.25 373,224.54999999999998 373,221.54999999999998" fill="#C1D3E8"/>
  </g><g class="cube" style="animation-delay:0.71s">
    <polygon points="279.79999999999995,218.4 286.79999999999995,222.1 279.79999999999995,225.8 272.79999999999995,222.1" fill="#DCE7F5" stroke="#BDCCE1" stroke-opacity="0.38" stroke-width=".42"/>
    <polygon points="286.79999999999995,222.1 286.79999999999995,225.1 279.79999999999995,228.8 279.79999999999995,225.8" fill="#CDDCEE"/>
    <polygon points="279.79999999999995,225.8 279.79999999999995,228.8 272.79999999999995,225.1 272.79999999999995,222.1" fill="#C1D3E8"/>
  </g><g class="cube" style="animation-delay:0.77s">
    <polygon points="303.00000000000006,219.2 310.00000000000006,222.89999999999998 303.00000000000006,226.6 296.00000000000006,222.89999999999998" fill="#DCE7F5" stroke="#BDCCE1" stroke-opacity="0.38" stroke-width=".42"/>
    <polygon points="310.00000000000006,222.89999999999998 310.00000000000006,225.89999999999998 303.00000000000006,229.6 303.00000000000006,226.6" fill="#CDDCEE"/>
    <polygon points="303.00000000000006,226.6 303.00000000000006,229.6 296.00000000000006,225.89999999999998 296.00000000000006,222.89999999999998" fill="#C1D3E8"/>
  </g><g class="cube" style="animation-delay:0.82s">
    <polygon points="326.2,220 333.2,223.7 326.2,227.4 319.2,223.7" fill="#DCE7F5" stroke="#BDCCE1" stroke-opacity="0.38" stroke-width=".42"/>
    <polygon points="333.2,223.7 333.2,226.7 326.2,230.4 326.2,227.4" fill="#CDDCEE"/>
    <polygon points="326.2,227.4 326.2,230.4 319.2,226.7 319.2,223.7" fill="#C1D3E8"/>
  </g><g class="cube" style="animation-delay:0.88s">
    <polygon points="349.40000000000003,220.8 356.40000000000003,224.5 349.40000000000003,228.20000000000002 342.40000000000003,224.5" fill="#DCE7F5" stroke="#BDCCE1" stroke-opacity="0.38" stroke-width=".42"/>
    <polygon points="356.40000000000003,224.5 356.40000000000003,227.5 349.40000000000003,231.20000000000002 349.40000000000003,228.20000000000002" fill="#CDDCEE"/>
    <polygon points="349.40000000000003,228.20000000000002 349.40000000000003,231.20000000000002 342.40000000000003,227.5 342.40000000000003,224.5" fill="#C1D3E8"/>
  </g><g class="cube" style="animation-delay:0.93s">
    <polygon points="372.6,221.6 379.6,225.29999999999998 372.6,229 365.6,225.29999999999998" fill="#DCE7F5" stroke="#BDCCE1" stroke-opacity="0.38" stroke-width=".42"/>
    <polygon points="379.6,225.29999999999998 379.6,228.29999999999998 372.6,232 372.6,229" fill="#CDDCEE"/>
    <polygon points="372.6,229 372.6,232 365.6,228.29999999999998 365.6,225.29999999999998" fill="#C1D3E8"/>
  </g><g class="cube" style="animation-delay:0.70s">
    <polygon points="272.4,222.15 279.4,225.85 272.4,229.55 265.4,225.85" fill="#DCE7F5" stroke="#BDCCE1" stroke-opacity="0.38" stroke-width=".42"/>
    <polygon points="279.4,225.85 279.4,228.85 272.4,232.55 272.4,229.55" fill="#CDDCEE"/>
    <polygon points="272.4,229.55 272.4,232.55 265.4,228.85 265.4,225.85" fill="#C1D3E8"/>
  </g><g class="cube" style="animation-delay:0.99s">
    <polygon points="395.80000000000007,222.39999999999998 402.80000000000007,226.09999999999997 395.80000000000007,229.79999999999998 388.80000000000007,226.09999999999997" fill="#DCE7F5" stroke="#BDCCE1" stroke-opacity="0.38" stroke-width=".42"/>
    <polygon points="402.80000000000007,226.09999999999997 402.80000000000007,229.09999999999997 395.80000000000007,232.79999999999998 395.80000000000007,229.79999999999998" fill="#CDDCEE"/>
    <polygon points="395.80000000000007,229.79999999999998 395.80000000000007,232.79999999999998 388.80000000000007,229.09999999999997 388.80000000000007,226.09999999999997" fill="#C1D3E8"/>
  </g><g class="cube" style="animation-delay:0.76s">
    <polygon points="295.6,222.95 302.6,226.64999999999998 295.6,230.35 288.6,226.64999999999998" fill="#DCE7F5" stroke="#BDCCE1" stroke-opacity="0.38" stroke-width=".42"/>
    <polygon points="302.6,226.64999999999998 302.6,229.64999999999998 295.6,233.35 295.6,230.35" fill="#CDDCEE"/>
    <polygon points="295.6,230.35 295.6,233.35 288.6,229.64999999999998 288.6,226.64999999999998" fill="#C1D3E8"/>
  </g><g class="cube" style="animation-delay:0.81s">
    <polygon points="318.8,223.75 325.8,227.45 318.8,231.15 311.8,227.45" fill="#DCE7F5" stroke="#BDCCE1" stroke-opacity="0.38" stroke-width=".42"/>
    <polygon points="325.8,227.45 325.8,230.45 318.8,234.15 318.8,231.15" fill="#CDDCEE"/>
    <polygon points="318.8,231.15 318.8,234.15 311.8,230.45 311.8,227.45" fill="#C1D3E8"/>
  </g><g class="cube" style="animation-delay:0.87s">
    <polygon points="342,224.55 349,228.25 342,231.95000000000002 335,228.25" fill="#DCE7F5" stroke="#BDCCE1" stroke-opacity="0.38" stroke-width=".42"/>
    <polygon points="349,228.25 349,231.25 342,234.95000000000002 342,231.95000000000002" fill="#CDDCEE"/>
    <polygon points="342,231.95000000000002 342,234.95000000000002 335,231.25 335,228.25" fill="#C1D3E8"/>
  </g><g class="cube" style="animation-delay:0.93s">
    <polygon points="365.20000000000005,225.35 372.20000000000005,229.04999999999998 365.20000000000005,232.75 358.20000000000005,229.04999999999998" fill="#DCE7F5" stroke="#BDCCE1" stroke-opacity="0.38" stroke-width=".42"/>
    <polygon points="372.20000000000005,229.04999999999998 372.20000000000005,232.04999999999998 365.20000000000005,235.75 365.20000000000005,232.75" fill="#CDDCEE"/>
    <polygon points="365.20000000000005,232.75 365.20000000000005,235.75 358.20000000000005,232.04999999999998 358.20000000000005,229.04999999999998" fill="#C1D3E8"/>
  </g><g class="cube" style="animation-delay:0.98s">
    <polygon points="388.40000000000003,226.14999999999998 395.40000000000003,229.84999999999997 388.40000000000003,233.54999999999998 381.40000000000003,229.84999999999997" fill="#DCE7F5" stroke="#BDCCE1" stroke-opacity="0.38" stroke-width=".42"/>
    <polygon points="395.40000000000003,229.84999999999997 395.40000000000003,232.84999999999997 388.40000000000003,236.54999999999998 388.40000000000003,233.54999999999998" fill="#CDDCEE"/>
    <polygon points="388.40000000000003,233.54999999999998 388.40000000000003,236.54999999999998 381.40000000000003,232.84999999999997 381.40000000000003,229.84999999999997" fill="#C1D3E8"/>
  </g><g class="cube" style="animation-delay:0.75s">
    <polygon points="288.20000000000005,226.7 295.20000000000005,230.39999999999998 288.20000000000005,234.1 281.20000000000005,230.39999999999998" fill="#DCE7F5" stroke="#BDCCE1" stroke-opacity="0.38" stroke-width=".42"/>
    <polygon points="295.20000000000005,230.39999999999998 295.20000000000005,233.39999999999998 288.20000000000005,237.1 288.20000000000005,234.1" fill="#CDDCEE"/>
    <polygon points="288.20000000000005,234.1 288.20000000000005,237.1 281.20000000000005,233.39999999999998 281.20000000000005,230.39999999999998" fill="#C1D3E8"/>
  </g><g class="cube" style="animation-delay:1.04s">
    <polygon points="411.6,226.95 418.6,230.64999999999998 411.6,234.35 404.6,230.64999999999998" fill="#DCE7F5" stroke="#BDCCE1" stroke-opacity="0.38" stroke-width=".42"/>
    <polygon points="418.6,230.64999999999998 418.6,233.64999999999998 411.6,237.35 411.6,234.35" fill="#CDDCEE"/>
    <polygon points="411.6,234.35 411.6,237.35 404.6,233.64999999999998 404.6,230.64999999999998" fill="#C1D3E8"/>
  </g><g class="cube" style="animation-delay:0.81s">
    <polygon points="311.4,227.5 318.4,231.2 311.4,234.9 304.4,231.2" fill="#DCE7F5" stroke="#BDCCE1" stroke-opacity="0.38" stroke-width=".42"/>
    <polygon points="318.4,231.2 318.4,234.2 311.4,237.9 311.4,234.9" fill="#CDDCEE"/>
    <polygon points="311.4,234.9 311.4,237.9 304.4,234.2 304.4,231.2" fill="#C1D3E8"/>
  </g><g class="cube" style="animation-delay:0.86s">
    <polygon points="334.6,228.3 341.6,232 334.6,235.70000000000002 327.6,232" fill="#DCE7F5" stroke="#BDCCE1" stroke-opacity="0.38" stroke-width=".42"/>
    <polygon points="341.6,232 341.6,235 334.6,238.70000000000002 334.6,235.70000000000002" fill="#CDDCEE"/>
    <polygon points="334.6,235.70000000000002 334.6,238.70000000000002 327.6,235 327.6,232" fill="#C1D3E8"/>
  </g><g class="cube" style="animation-delay:0.92s">
    <polygon points="357.8,229.1 364.8,232.79999999999998 357.8,236.5 350.8,232.79999999999998" fill="#DCE7F5" stroke="#BDCCE1" stroke-opacity="0.38" stroke-width=".42"/>
    <polygon points="364.8,232.79999999999998 364.8,235.79999999999998 357.8,239.5 357.8,236.5" fill="#CDDCEE"/>
    <polygon points="357.8,236.5 357.8,239.5 350.8,235.79999999999998 350.8,232.79999999999998" fill="#C1D3E8"/>
  </g><g class="cube" style="animation-delay:0.97s">
    <polygon points="381.00000000000006,229.89999999999998 388.00000000000006,233.59999999999997 381.00000000000006,237.29999999999998 374.00000000000006,233.59999999999997" fill="#DCE7F5" stroke="#BDCCE1" stroke-opacity="0.38" stroke-width=".42"/>
    <polygon points="388.00000000000006,233.59999999999997 388.00000000000006,236.59999999999997 381.00000000000006,240.29999999999998 381.00000000000006,237.29999999999998" fill="#CDDCEE"/>
    <polygon points="381.00000000000006,237.29999999999998 381.00000000000006,240.29999999999998 374.00000000000006,236.59999999999997 374.00000000000006,233.59999999999997" fill="#C1D3E8"/>
  </g><g class="cube" style="animation-delay:1.03s">
    <polygon points="404.2,230.7 411.2,234.39999999999998 404.2,238.1 397.2,234.39999999999998" fill="#DCE7F5" stroke="#BDCCE1" stroke-opacity="0.38" stroke-width=".42"/>
    <polygon points="411.2,234.39999999999998 411.2,237.39999999999998 404.2,241.1 404.2,238.1" fill="#CDDCEE"/>
    <polygon points="404.2,238.1 404.2,241.1 397.2,237.39999999999998 397.2,234.39999999999998" fill="#C1D3E8"/>
  </g><g class="cube" style="animation-delay:0.80s">
    <polygon points="304,231.25 311,234.95 304,238.65 297,234.95" fill="#DCE7F5" stroke="#BDCCE1" stroke-opacity="0.38" stroke-width=".42"/>
    <polygon points="311,234.95 311,237.95 304,241.65 304,238.65" fill="#CDDCEE"/>
    <polygon points="304,238.65 304,241.65 297,237.95 297,234.95" fill="#C1D3E8"/>
  </g><g class="cube" style="animation-delay:1.09s">
    <polygon points="427.4,231.5 434.4,235.2 427.4,238.9 420.4,235.2" fill="#DCE7F5" stroke="#BDCCE1" stroke-opacity="0.38" stroke-width=".42"/>
    <polygon points="434.4,235.2 434.4,238.2 427.4,241.9 427.4,238.9" fill="#CDDCEE"/>
    <polygon points="427.4,238.9 427.4,241.9 420.4,238.2 420.4,235.2" fill="#C1D3E8"/>
  </g><g class="cube" style="animation-delay:0.86s">
    <polygon points="327.2,232.05 334.2,235.75 327.2,239.45000000000002 320.2,235.75" fill="#DCE7F5" stroke="#BDCCE1" stroke-opacity="0.38" stroke-width=".42"/>
    <polygon points="334.2,235.75 334.2,238.75 327.2,242.45000000000002 327.2,239.45000000000002" fill="#CDDCEE"/>
    <polygon points="327.2,239.45000000000002 327.2,242.45000000000002 320.2,238.75 320.2,235.75" fill="#C1D3E8"/>
  </g><g class="cube" style="animation-delay:0.91s">
    <polygon points="350.40000000000003,232.85 357.40000000000003,236.54999999999998 350.40000000000003,240.25 343.40000000000003,236.54999999999998" fill="#DCE7F5" stroke="#BDCCE1" stroke-opacity="0.38" stroke-width=".42"/>
    <polygon points="357.40000000000003,236.54999999999998 357.40000000000003,239.54999999999998 350.40000000000003,243.25 350.40000000000003,240.25" fill="#CDDCEE"/>
    <polygon points="350.40000000000003,240.25 350.40000000000003,243.25 343.40000000000003,239.54999999999998 343.40000000000003,236.54999999999998" fill="#C1D3E8"/>
  </g><g class="cube" style="animation-delay:0.97s">
    <polygon points="373.6,233.64999999999998 380.6,237.34999999999997 373.6,241.04999999999998 366.6,237.34999999999997" fill="#DCE7F5" stroke="#BDCCE1" stroke-opacity="0.38" stroke-width=".42"/>
    <polygon points="380.6,237.34999999999997 380.6,240.34999999999997 373.6,244.04999999999998 373.6,241.04999999999998" fill="#CDDCEE"/>
    <polygon points="373.6,241.04999999999998 373.6,244.04999999999998 366.6,240.34999999999997 366.6,237.34999999999997" fill="#C1D3E8"/>
  </g><g class="cube" style="animation-delay:1.02s">
    <polygon points="396.8,234.45 403.8,238.14999999999998 396.8,241.85 389.8,238.14999999999998" fill="#DCE7F5" stroke="#BDCCE1" stroke-opacity="0.38" stroke-width=".42"/>
    <polygon points="403.8,238.14999999999998 403.8,241.14999999999998 396.8,244.85 396.8,241.85" fill="#CDDCEE"/>
    <polygon points="396.8,241.85 396.8,244.85 389.8,241.14999999999998 389.8,238.14999999999998" fill="#C1D3E8"/>
  </g><g class="cube" style="animation-delay:1.08s">
    <polygon points="420,235.25 427,238.95 420,242.65 413,238.95" fill="#DCE7F5" stroke="#BDCCE1" stroke-opacity="0.38" stroke-width=".42"/>
    <polygon points="427,238.95 427,241.95 420,245.65 420,242.65" fill="#CDDCEE"/>
    <polygon points="420,242.65 420,245.65 413,241.95 413,238.95" fill="#C1D3E8"/>
  </g><g class="cube" style="animation-delay:0.85s">
    <polygon points="319.8,235.8 326.8,239.5 319.8,243.20000000000002 312.8,239.5" fill="#DCE7F5" stroke="#BDCCE1" stroke-opacity="0.38" stroke-width=".42"/>
    <polygon points="326.8,239.5 326.8,242.5 319.8,246.20000000000002 319.8,243.20000000000002" fill="#CDDCEE"/>
    <polygon points="319.8,243.20000000000002 319.8,246.20000000000002 312.8,242.5 312.8,239.5" fill="#C1D3E8"/>
  </g><g class="cube" style="animation-delay:1.14s">
    <polygon points="443.20000000000005,236.05 450.20000000000005,239.75 443.20000000000005,243.45000000000002 436.20000000000005,239.75" fill="#DCE7F5" stroke="#BDCCE1" stroke-opacity="0.38" stroke-width=".42"/>
    <polygon points="450.20000000000005,239.75 450.20000000000005,242.75 443.20000000000005,246.45000000000002 443.20000000000005,243.45000000000002" fill="#CDDCEE"/>
    <polygon points="443.20000000000005,243.45000000000002 443.20000000000005,246.45000000000002 436.20000000000005,242.75 436.20000000000005,239.75" fill="#C1D3E8"/>
  </g><g class="cube" style="animation-delay:0.91s">
    <polygon points="343,236.6 350,240.29999999999998 343,244 336,240.29999999999998" fill="#DCE7F5" stroke="#BDCCE1" stroke-opacity="0.38" stroke-width=".42"/>
    <polygon points="350,240.29999999999998 350,243.29999999999998 343,247 343,244" fill="#CDDCEE"/>
    <polygon points="343,244 343,247 336,243.29999999999998 336,240.29999999999998" fill="#C1D3E8"/>
  </g><g class="cube" style="animation-delay:0.96s">
    <polygon points="366.20000000000005,237.39999999999998 373.20000000000005,241.09999999999997 366.20000000000005,244.79999999999998 359.20000000000005,241.09999999999997" fill="#DCE7F5" stroke="#BDCCE1" stroke-opacity="0.38" stroke-width=".42"/>
    <polygon points="373.20000000000005,241.09999999999997 373.20000000000005,244.09999999999997 366.20000000000005,247.79999999999998 366.20000000000005,244.79999999999998" fill="#CDDCEE"/>
    <polygon points="366.20000000000005,244.79999999999998 366.20000000000005,247.79999999999998 359.20000000000005,244.09999999999997 359.20000000000005,241.09999999999997" fill="#C1D3E8"/>
  </g><g class="cube" style="animation-delay:1.02s">
    <polygon points="389.4,238.2 396.4,241.89999999999998 389.4,245.6 382.4,241.89999999999998" fill="#DCE7F5" stroke="#BDCCE1" stroke-opacity="0.38" stroke-width=".42"/>
    <polygon points="396.4,241.89999999999998 396.4,244.89999999999998 389.4,248.6 389.4,245.6" fill="#CDDCEE"/>
    <polygon points="389.4,245.6 389.4,248.6 382.4,244.89999999999998 382.4,241.89999999999998" fill="#C1D3E8"/>
  </g><g class="cube" style="animation-delay:1.07s">
    <polygon points="412.6,239 419.6,242.7 412.6,246.4 405.6,242.7" fill="#DCE7F5" stroke="#BDCCE1" stroke-opacity="0.38" stroke-width=".42"/>
    <polygon points="419.6,242.7 419.6,245.7 412.6,249.4 412.6,246.4" fill="#CDDCEE"/>
    <polygon points="412.6,246.4 412.6,249.4 405.6,245.7 405.6,242.7" fill="#C1D3E8"/>
  </g><g class="cube" style="animation-delay:1.13s">
    <polygon points="435.8,239.8 442.8,243.5 435.8,247.20000000000002 428.8,243.5" fill="#DCE7F5" stroke="#BDCCE1" stroke-opacity="0.38" stroke-width=".42"/>
    <polygon points="442.8,243.5 442.8,246.5 435.8,250.20000000000002 435.8,247.20000000000002" fill="#CDDCEE"/>
    <polygon points="435.8,247.20000000000002 435.8,250.20000000000002 428.8,246.5 428.8,243.5" fill="#C1D3E8"/>
  </g><g class="cube" style="animation-delay:0.90s">
    <polygon points="335.6,240.35 342.6,244.04999999999998 335.6,247.75 328.6,244.04999999999998" fill="#DCE7F5" stroke="#BDCCE1" stroke-opacity="0.38" stroke-width=".42"/>
    <polygon points="342.6,244.04999999999998 342.6,247.04999999999998 335.6,250.75 335.6,247.75" fill="#CDDCEE"/>
    <polygon points="335.6,247.75 335.6,250.75 328.6,247.04999999999998 328.6,244.04999999999998" fill="#C1D3E8"/>
  </g><g class="cube" style="animation-delay:1.19s">
    <polygon points="459,240.60000000000002 466,244.3 459,248.00000000000003 452,244.3" fill="#DCE7F5" stroke="#BDCCE1" stroke-opacity="0.38" stroke-width=".42"/>
    <polygon points="466,244.3 466,247.3 459,251.00000000000003 459,248.00000000000003" fill="#CDDCEE"/>
    <polygon points="459,248.00000000000003 459,251.00000000000003 452,247.3 452,244.3" fill="#C1D3E8"/>
  </g><g class="cube" style="animation-delay:0.95s">
    <polygon points="358.8,241.14999999999998 365.8,244.84999999999997 358.8,248.54999999999998 351.8,244.84999999999997" fill="#DCE7F5" stroke="#BDCCE1" stroke-opacity="0.38" stroke-width=".42"/>
    <polygon points="365.8,244.84999999999997 365.8,247.84999999999997 358.8,251.54999999999998 358.8,248.54999999999998" fill="#CDDCEE"/>
    <polygon points="358.8,248.54999999999998 358.8,251.54999999999998 351.8,247.84999999999997 351.8,244.84999999999997" fill="#C1D3E8"/>
  </g><g class="cube" style="animation-delay:1.01s">
    <polygon points="382,241.95 389,245.64999999999998 382,249.35 375,245.64999999999998" fill="#DCE7F5" stroke="#BDCCE1" stroke-opacity="0.38" stroke-width=".42"/>
    <polygon points="389,245.64999999999998 389,248.64999999999998 382,252.35 382,249.35" fill="#CDDCEE"/>
    <polygon points="382,249.35 382,252.35 375,248.64999999999998 375,245.64999999999998" fill="#C1D3E8"/>
  </g><g class="cube" style="animation-delay:1.07s">
    <polygon points="405.2,242.75 412.2,246.45 405.2,250.15 398.2,246.45" fill="#DCE7F5" stroke="#BDCCE1" stroke-opacity="0.38" stroke-width=".42"/>
    <polygon points="412.2,246.45 412.2,249.45 405.2,253.15 405.2,250.15" fill="#CDDCEE"/>
    <polygon points="405.2,250.15 405.2,253.15 398.2,249.45 398.2,246.45" fill="#C1D3E8"/>
  </g><g class="cube" style="animation-delay:1.12s">
    <polygon points="428.40000000000003,243.55 435.40000000000003,247.25 428.40000000000003,250.95000000000002 421.40000000000003,247.25" fill="#DCE7F5" stroke="#BDCCE1" stroke-opacity="0.38" stroke-width=".42"/>
    <polygon points="435.40000000000003,247.25 435.40000000000003,250.25 428.40000000000003,253.95000000000002 428.40000000000003,250.95000000000002" fill="#CDDCEE"/>
    <polygon points="428.40000000000003,250.95000000000002 428.40000000000003,253.95000000000002 421.40000000000003,250.25 421.40000000000003,247.25" fill="#C1D3E8"/>
  </g><g class="cube" style="animation-delay:1.18s">
    <polygon points="451.6,244.35000000000002 458.6,248.05 451.6,251.75000000000003 444.6,248.05" fill="#DCE7F5" stroke="#BDCCE1" stroke-opacity="0.38" stroke-width=".42"/>
    <polygon points="458.6,248.05 458.6,251.05 451.6,254.75000000000003 451.6,251.75000000000003" fill="#CDDCEE"/>
    <polygon points="451.6,251.75000000000003 451.6,254.75000000000003 444.6,251.05 444.6,248.05" fill="#C1D3E8"/>
  </g><g class="cube" style="animation-delay:0.95s">
    <polygon points="351.40000000000003,244.89999999999998 358.40000000000003,248.59999999999997 351.40000000000003,252.29999999999998 344.40000000000003,248.59999999999997" fill="#DCE7F5" stroke="#BDCCE1" stroke-opacity="0.38" stroke-width=".42"/>
    <polygon points="358.40000000000003,248.59999999999997 358.40000000000003,251.59999999999997 351.40000000000003,255.29999999999998 351.40000000000003,252.29999999999998" fill="#CDDCEE"/>
    <polygon points="351.40000000000003,252.29999999999998 351.40000000000003,255.29999999999998 344.40000000000003,251.59999999999997 344.40000000000003,248.59999999999997" fill="#C1D3E8"/>
  </g><g class="cube" style="animation-delay:1.23s">
    <polygon points="474.80000000000007,245.14999999999998 481.80000000000007,248.84999999999997 474.80000000000007,252.54999999999998 467.80000000000007,248.84999999999997" fill="#DCE7F5" stroke="#BDCCE1" stroke-opacity="0.38" stroke-width=".42"/>
    <polygon points="481.80000000000007,248.84999999999997 481.80000000000007,251.84999999999997 474.80000000000007,255.54999999999998 474.80000000000007,252.54999999999998" fill="#CDDCEE"/>
    <polygon points="474.80000000000007,252.54999999999998 474.80000000000007,255.54999999999998 467.80000000000007,251.84999999999997 467.80000000000007,248.84999999999997" fill="#C1D3E8"/>
  </g><g class="cube" style="animation-delay:1.00s">
    <polygon points="374.59999999999997,245.7 381.59999999999997,249.39999999999998 374.59999999999997,253.1 367.59999999999997,249.39999999999998" fill="#DCE7F5" stroke="#BDCCE1" stroke-opacity="0.38" stroke-width=".42"/>
    <polygon points="381.59999999999997,249.39999999999998 381.59999999999997,252.39999999999998 374.59999999999997,256.09999999999997 374.59999999999997,253.1" fill="#CDDCEE"/>
    <polygon points="374.59999999999997,253.1 374.59999999999997,256.09999999999997 367.59999999999997,252.39999999999998 367.59999999999997,249.39999999999998" fill="#C1D3E8"/>
  </g><g class="cube" style="animation-delay:1.06s">
    <polygon points="397.8,246.5 404.8,250.2 397.8,253.9 390.8,250.2" fill="#DCE7F5" stroke="#BDCCE1" stroke-opacity="0.38" stroke-width=".42"/>
    <polygon points="404.8,250.2 404.8,253.2 397.8,256.9 397.8,253.9" fill="#CDDCEE"/>
    <polygon points="397.8,253.9 397.8,256.9 390.8,253.2 390.8,250.2" fill="#C1D3E8"/>
  </g><g class="cube" style="animation-delay:1.12s">
    <polygon points="421,247.3 428,251 421,254.70000000000002 414,251" fill="#DCE7F5" stroke="#BDCCE1" stroke-opacity="0.38" stroke-width=".42"/>
    <polygon points="428,251 428,254 421,257.7 421,254.70000000000002" fill="#CDDCEE"/>
    <polygon points="421,254.70000000000002 421,257.7 414,254 414,251" fill="#C1D3E8"/>
  </g><g class="cube" style="animation-delay:1.17s">
    <polygon points="444.20000000000005,248.10000000000002 451.20000000000005,251.8 444.20000000000005,255.50000000000003 437.20000000000005,251.8" fill="#DCE7F5" stroke="#BDCCE1" stroke-opacity="0.38" stroke-width=".42"/>
    <polygon points="451.20000000000005,251.8 451.20000000000005,254.8 444.20000000000005,258.5 444.20000000000005,255.50000000000003" fill="#CDDCEE"/>
    <polygon points="444.20000000000005,255.50000000000003 444.20000000000005,258.5 437.20000000000005,254.8 437.20000000000005,251.8" fill="#C1D3E8"/>
  </g><g class="cube" style="animation-delay:1.23s">
    <polygon points="467.40000000000003,248.89999999999998 474.40000000000003,252.59999999999997 467.40000000000003,256.29999999999995 460.40000000000003,252.59999999999997" fill="#DCE7F5" stroke="#BDCCE1" stroke-opacity="0.38" stroke-width=".42"/>
    <polygon points="474.40000000000003,252.59999999999997 474.40000000000003,255.59999999999997 467.40000000000003,259.29999999999995 467.40000000000003,256.29999999999995" fill="#CDDCEE"/>
    <polygon points="467.40000000000003,256.29999999999995 467.40000000000003,259.29999999999995 460.40000000000003,255.59999999999997 460.40000000000003,252.59999999999997" fill="#C1D3E8"/>
  </g><g class="cube" style="animation-delay:1.00s">
    <polygon points="367.2,249.45 374.2,253.14999999999998 367.2,256.84999999999997 360.2,253.14999999999998" fill="#DCE7F5" stroke="#BDCCE1" stroke-opacity="0.38" stroke-width=".42"/>
    <polygon points="374.2,253.14999999999998 374.2,256.15 367.2,259.84999999999997 367.2,256.84999999999997" fill="#CDDCEE"/>
    <polygon points="367.2,256.84999999999997 367.2,259.84999999999997 360.2,256.15 360.2,253.14999999999998" fill="#C1D3E8"/>
  </g><g class="cube" style="animation-delay:1.28s">
    <polygon points="490.6,249.7 497.6,253.39999999999998 490.6,257.09999999999997 483.6,253.39999999999998" fill="#DCE7F5" stroke="#BDCCE1" stroke-opacity="0.38" stroke-width=".42"/>
    <polygon points="497.6,253.39999999999998 497.6,256.4 490.6,260.09999999999997 490.6,257.09999999999997" fill="#CDDCEE"/>
    <polygon points="490.6,257.09999999999997 490.6,260.09999999999997 483.6,256.4 483.6,253.39999999999998" fill="#C1D3E8"/>
  </g><g class="cube" style="animation-delay:1.05s">
    <polygon points="390.4,250.25 397.4,253.95 390.4,257.65 383.4,253.95" fill="#DCE7F5" stroke="#BDCCE1" stroke-opacity="0.38" stroke-width=".42"/>
    <polygon points="397.4,253.95 397.4,256.95 390.4,260.65 390.4,257.65" fill="#CDDCEE"/>
    <polygon points="390.4,257.65 390.4,260.65 383.4,256.95 383.4,253.95" fill="#C1D3E8"/>
  </g><g class="cube" style="animation-delay:1.11s">
    <polygon points="413.6,251.05 420.6,254.75 413.6,258.45 406.6,254.75" fill="#DCE7F5" stroke="#BDCCE1" stroke-opacity="0.38" stroke-width=".42"/>
    <polygon points="420.6,254.75 420.6,257.75 413.6,261.45 413.6,258.45" fill="#CDDCEE"/>
    <polygon points="413.6,258.45 413.6,261.45 406.6,257.75 406.6,254.75" fill="#C1D3E8"/>
  </g><g class="cube" style="animation-delay:1.16s">
    <polygon points="436.8,251.85000000000002 443.8,255.55 436.8,259.25 429.8,255.55" fill="#DCE7F5" stroke="#BDCCE1" stroke-opacity="0.38" stroke-width=".42"/>
    <polygon points="443.8,255.55 443.8,258.55 436.8,262.25 436.8,259.25" fill="#CDDCEE"/>
    <polygon points="436.8,259.25 436.8,262.25 429.8,258.55 429.8,255.55" fill="#C1D3E8"/>
  </g><g class="cube" style="animation-delay:1.22s">
    <polygon points="460.00000000000006,252.64999999999998 467.00000000000006,256.34999999999997 460.00000000000006,260.04999999999995 453.00000000000006,256.34999999999997" fill="#DCE7F5" stroke="#BDCCE1" stroke-opacity="0.38" stroke-width=".42"/>
    <polygon points="467.00000000000006,256.34999999999997 467.00000000000006,259.34999999999997 460.00000000000006,263.04999999999995 460.00000000000006,260.04999999999995" fill="#CDDCEE"/>
    <polygon points="460.00000000000006,260.04999999999995 460.00000000000006,263.04999999999995 453.00000000000006,259.34999999999997 453.00000000000006,256.34999999999997" fill="#C1D3E8"/>
  </g><g class="cube" style="animation-delay:1.28s">
    <polygon points="483.20000000000005,253.45 490.20000000000005,257.15 483.20000000000005,260.84999999999997 476.20000000000005,257.15" fill="#DCE7F5" stroke="#BDCCE1" stroke-opacity="0.38" stroke-width=".42"/>
    <polygon points="490.20000000000005,257.15 490.20000000000005,260.15 483.20000000000005,263.84999999999997 483.20000000000005,260.84999999999997" fill="#CDDCEE"/>
    <polygon points="483.20000000000005,260.84999999999997 483.20000000000005,263.84999999999997 476.20000000000005,260.15 476.20000000000005,257.15" fill="#C1D3E8"/>
  </g><g class="cube" style="animation-delay:1.05s">
    <polygon points="383,254 390,257.7 383,261.4 376,257.7" fill="#DCE7F5" stroke="#BDCCE1" stroke-opacity="0.38" stroke-width=".42"/>
    <polygon points="390,257.7 390,260.7 383,264.4 383,261.4" fill="#CDDCEE"/>
    <polygon points="383,261.4 383,264.4 376,260.7 376,257.7" fill="#C1D3E8"/>
  </g><g class="cube" style="animation-delay:1.30s">
    <polygon points="506.4,254.25 513.4,257.95 506.4,261.65 499.4,257.95" fill="#DCE7F5" stroke="#BDCCE1" stroke-opacity="0.38" stroke-width=".42"/>
    <polygon points="513.4,257.95 513.4,260.95 506.4,264.65 506.4,261.65" fill="#CDDCEE"/>
    <polygon points="506.4,261.65 506.4,264.65 499.4,260.95 499.4,257.95" fill="#C1D3E8"/>
  </g><g class="cube" style="animation-delay:1.10s">
    <polygon points="406.2,254.8 413.2,258.5 406.2,262.2 399.2,258.5" fill="#DCE7F5" stroke="#BDCCE1" stroke-opacity="0.38" stroke-width=".42"/>
    <polygon points="413.2,258.5 413.2,261.5 406.2,265.2 406.2,262.2" fill="#CDDCEE"/>
    <polygon points="406.2,262.2 406.2,265.2 399.2,261.5 399.2,258.5" fill="#C1D3E8"/>
  </g><g class="cube" style="animation-delay:1.16s">
    <polygon points="429.40000000000003,255.60000000000002 436.40000000000003,259.3 429.40000000000003,263 422.40000000000003,259.3" fill="#DCE7F5" stroke="#BDCCE1" stroke-opacity="0.38" stroke-width=".42"/>
    <polygon points="436.40000000000003,259.3 436.40000000000003,262.3 429.40000000000003,266 429.40000000000003,263" fill="#CDDCEE"/>
    <polygon points="429.40000000000003,263 429.40000000000003,266 422.40000000000003,262.3 422.40000000000003,259.3" fill="#C1D3E8"/>
  </g><g class="cube" style="animation-delay:1.21s">
    <polygon points="452.6,256.4 459.6,260.09999999999997 452.6,263.79999999999995 445.6,260.09999999999997" fill="#DCE7F5" stroke="#BDCCE1" stroke-opacity="0.38" stroke-width=".42"/>
    <polygon points="459.6,260.09999999999997 459.6,263.09999999999997 452.6,266.79999999999995 452.6,263.79999999999995" fill="#CDDCEE"/>
    <polygon points="452.6,263.79999999999995 452.6,266.79999999999995 445.6,263.09999999999997 445.6,260.09999999999997" fill="#C1D3E8"/>
  </g><g class="cube" style="animation-delay:1.27s">
    <polygon points="475.80000000000007,257.2 482.80000000000007,260.9 475.80000000000007,264.59999999999997 468.80000000000007,260.9" fill="#DCE7F5" stroke="#BDCCE1" stroke-opacity="0.38" stroke-width=".42"/>
    <polygon points="482.80000000000007,260.9 482.80000000000007,263.9 475.80000000000007,267.59999999999997 475.80000000000007,264.59999999999997" fill="#CDDCEE"/>
    <polygon points="475.80000000000007,264.59999999999997 475.80000000000007,267.59999999999997 468.80000000000007,263.9 468.80000000000007,260.9" fill="#C1D3E8"/>
  </g><g class="cube" style="animation-delay:1.30s">
    <polygon points="499,258 506,261.7 499,265.4 492,261.7" fill="#DCE7F5" stroke="#BDCCE1" stroke-opacity="0.38" stroke-width=".42"/>
    <polygon points="506,261.7 506,264.7 499,268.4 499,265.4" fill="#CDDCEE"/>
    <polygon points="499,265.4 499,268.4 492,264.7 492,261.7" fill="#C1D3E8"/>
  </g><g class="cube" style="animation-delay:1.09s">
    <polygon points="398.8,258.55 405.8,262.25 398.8,265.95 391.8,262.25" fill="#DCE7F5" stroke="#BDCCE1" stroke-opacity="0.38" stroke-width=".42"/>
    <polygon points="405.8,262.25 405.8,265.25 398.8,268.95 398.8,265.95" fill="#CDDCEE"/>
    <polygon points="398.8,265.95 398.8,268.95 391.8,265.25 391.8,262.25" fill="#C1D3E8"/>
  </g><g class="cube" style="animation-delay:1.15s">
    <polygon points="422,259.35 429,263.05 422,266.75 415,263.05" fill="#DCE7F5" stroke="#BDCCE1" stroke-opacity="0.38" stroke-width=".42"/>
    <polygon points="429,263.05 429,266.05 422,269.75 422,266.75" fill="#CDDCEE"/>
    <polygon points="422,266.75 422,269.75 415,266.05 415,263.05" fill="#C1D3E8"/>
  </g><g class="cube" style="animation-delay:1.21s">
    <polygon points="445.20000000000005,260.15 452.20000000000005,263.84999999999997 445.20000000000005,267.54999999999995 438.20000000000005,263.84999999999997" fill="#DCE7F5" stroke="#BDCCE1" stroke-opacity="0.38" stroke-width=".42"/>
    <polygon points="452.20000000000005,263.84999999999997 452.20000000000005,266.84999999999997 445.20000000000005,270.54999999999995 445.20000000000005,267.54999999999995" fill="#CDDCEE"/>
    <polygon points="445.20000000000005,267.54999999999995 445.20000000000005,270.54999999999995 438.20000000000005,266.84999999999997 438.20000000000005,263.84999999999997" fill="#C1D3E8"/>
  </g><g class="cube" style="animation-delay:1.26s">
    <polygon points="468.40000000000003,260.95 475.40000000000003,264.65 468.40000000000003,268.34999999999997 461.40000000000003,264.65" fill="#DCE7F5" stroke="#BDCCE1" stroke-opacity="0.38" stroke-width=".42"/>
    <polygon points="475.40000000000003,264.65 475.40000000000003,267.65 468.40000000000003,271.34999999999997 468.40000000000003,268.34999999999997" fill="#CDDCEE"/>
    <polygon points="468.40000000000003,268.34999999999997 468.40000000000003,271.34999999999997 461.40000000000003,267.65 461.40000000000003,264.65" fill="#C1D3E8"/>
  </g><g class="cube" style="animation-delay:1.30s">
    <polygon points="491.6,261.75 498.6,265.45 491.6,269.15 484.6,265.45" fill="#DCE7F5" stroke="#BDCCE1" stroke-opacity="0.38" stroke-width=".42"/>
    <polygon points="498.6,265.45 498.6,268.45 491.6,272.15 491.6,269.15" fill="#CDDCEE"/>
    <polygon points="491.6,269.15 491.6,272.15 484.6,268.45 484.6,265.45" fill="#C1D3E8"/>
  </g><g class="cube liveCube" style="animation-delay:1.30s">
    <polygon points="514.8,244.55 521.8,248.25 514.8,251.95000000000002 507.79999999999995,248.25" fill="#5e9eed" stroke="#087EA4" stroke-opacity="0.28" stroke-width=".42"/>
    <polygon points="521.8,248.25 521.8,269.25 514.8,272.95 514.8,251.95000000000002" fill="#3b82d4"/>
    <polygon points="514.8,251.95000000000002 514.8,272.95 507.79999999999995,269.25 507.79999999999995,248.25" fill="#2b6ec3"/>
  </g><g class="cube" style="animation-delay:1.14s">
    <polygon points="414.6,263.1 421.6,266.8 414.6,270.5 407.6,266.8" fill="#DCE7F5" stroke="#BDCCE1" stroke-opacity="0.38" stroke-width=".42"/>
    <polygon points="421.6,266.8 421.6,269.8 414.6,273.5 414.6,270.5" fill="#CDDCEE"/>
    <polygon points="414.6,270.5 414.6,273.5 407.6,269.8 407.6,266.8" fill="#C1D3E8"/>
  </g><g class="cube" style="animation-delay:1.20s">
    <polygon points="437.8,263.9 444.8,267.59999999999997 437.8,271.29999999999995 430.8,267.59999999999997" fill="#DCE7F5" stroke="#BDCCE1" stroke-opacity="0.38" stroke-width=".42"/>
    <polygon points="444.8,267.59999999999997 444.8,270.59999999999997 437.8,274.29999999999995 437.8,271.29999999999995" fill="#CDDCEE"/>
    <polygon points="437.8,271.29999999999995 437.8,274.29999999999995 430.8,270.59999999999997 430.8,267.59999999999997" fill="#C1D3E8"/>
  </g><g class="cube" style="animation-delay:1.26s">
    <polygon points="461.00000000000006,264.7 468.00000000000006,268.4 461.00000000000006,272.09999999999997 454.00000000000006,268.4" fill="#DCE7F5" stroke="#BDCCE1" stroke-opacity="0.38" stroke-width=".42"/>
    <polygon points="468.00000000000006,268.4 468.00000000000006,271.4 461.00000000000006,275.09999999999997 461.00000000000006,272.09999999999997" fill="#CDDCEE"/>
    <polygon points="461.00000000000006,272.09999999999997 461.00000000000006,275.09999999999997 454.00000000000006,271.4 454.00000000000006,268.4" fill="#C1D3E8"/>
  </g><g class="cube" style="animation-delay:1.30s">
    <polygon points="484.2,265.5 491.2,269.2 484.2,272.9 477.2,269.2" fill="#DCE7F5" stroke="#BDCCE1" stroke-opacity="0.38" stroke-width=".42"/>
    <polygon points="491.2,269.2 491.2,272.2 484.2,275.9 484.2,272.9" fill="#CDDCEE"/>
    <polygon points="484.2,272.9 484.2,275.9 477.2,272.2 477.2,269.2" fill="#C1D3E8"/>
  </g><g class="cube liveCube" style="animation-delay:1.30s">
    <polygon points="507.40000000000003,241.3 514.4000000000001,245 507.40000000000003,248.70000000000002 500.40000000000003,245" fill="#3687e8" stroke="#087EA4" stroke-opacity="0.28" stroke-width=".42"/>
    <polygon points="514.4000000000001,245 514.4000000000001,273 507.40000000000003,276.7 507.40000000000003,248.70000000000002" fill="#1769c8"/>
    <polygon points="507.40000000000003,248.70000000000002 507.40000000000003,276.7 500.40000000000003,273 500.40000000000003,245" fill="#0d58b7"/>
  </g><g class="cube" style="animation-delay:1.19s">
    <polygon points="430.40000000000003,267.65 437.40000000000003,271.34999999999997 430.40000000000003,275.04999999999995 423.40000000000003,271.34999999999997" fill="#DCE7F5" stroke="#BDCCE1" stroke-opacity="0.38" stroke-width=".42"/>
    <polygon points="437.40000000000003,271.34999999999997 437.40000000000003,274.34999999999997 430.40000000000003,278.04999999999995 430.40000000000003,275.04999999999995" fill="#CDDCEE"/>
    <polygon points="430.40000000000003,275.04999999999995 430.40000000000003,278.04999999999995 423.40000000000003,274.34999999999997 423.40000000000003,271.34999999999997" fill="#C1D3E8"/>
  </g><g class="cube" style="animation-delay:1.25s">
    <polygon points="453.6,268.45 460.6,272.15 453.6,275.84999999999997 446.6,272.15" fill="#DCE7F5" stroke="#BDCCE1" stroke-opacity="0.38" stroke-width=".42"/>
    <polygon points="460.6,272.15 460.6,275.15 453.6,278.84999999999997 453.6,275.84999999999997" fill="#CDDCEE"/>
    <polygon points="453.6,275.84999999999997 453.6,278.84999999999997 446.6,275.15 446.6,272.15" fill="#C1D3E8"/>
  </g><g class="cube" style="animation-delay:1.30s">
    <polygon points="476.8,269.25 483.8,272.95 476.8,276.65 469.8,272.95" fill="#DCE7F5" stroke="#BDCCE1" stroke-opacity="0.38" stroke-width=".42"/>
    <polygon points="483.8,272.95 483.8,275.95 476.8,279.65 476.8,276.65" fill="#CDDCEE"/>
    <polygon points="476.8,276.65 476.8,279.65 469.8,275.95 469.8,272.95" fill="#C1D3E8"/>
  </g><g class="cube liveCube" style="animation-delay:1.30s">
    <polygon points="500,266.05 507,269.75 500,273.45 493,269.75" fill="#a7c8f5" stroke="#087EA4" stroke-opacity="0.28" stroke-width=".42"/>
    <polygon points="507,269.75 507,276.75 500,280.45 500,273.45" fill="#7eaee9"/>
    <polygon points="500,273.45 500,280.45 493,276.75 493,269.75" fill="#6297d9"/>
  </g><g class="cube" style="animation-delay:1.24s">
    <polygon points="446.20000000000005,272.2 453.20000000000005,275.9 446.20000000000005,279.59999999999997 439.20000000000005,275.9" fill="#DCE7F5" stroke="#BDCCE1" stroke-opacity="0.38" stroke-width=".42"/>
    <polygon points="453.20000000000005,275.9 453.20000000000005,278.9 446.20000000000005,282.59999999999997 446.20000000000005,279.59999999999997" fill="#CDDCEE"/>
    <polygon points="446.20000000000005,279.59999999999997 446.20000000000005,282.59999999999997 439.20000000000005,278.9 439.20000000000005,275.9" fill="#C1D3E8"/>
  </g><g class="cube liveCube" style="animation-delay:1.30s">
    <polygon points="469.4,266 476.4,269.7 469.4,273.4 462.4,269.7" fill="#9ac1f3" stroke="#087EA4" stroke-opacity="0.28" stroke-width=".42"/>
    <polygon points="476.4,269.7 476.4,279.7 469.4,283.4 469.4,273.4" fill="#72a6e5"/>
    <polygon points="469.4,273.4 469.4,283.4 462.4,279.7 462.4,269.7" fill="#5890d5"/>
  </g><g class="cube liveCube" style="animation-delay:1.30s">
    <polygon points="492.6,268.8 499.6,272.5 492.6,276.2 485.6,272.5" fill="#a3c6f4" stroke="#087EA4" stroke-opacity="0.28" stroke-width=".42"/>
    <polygon points="499.6,272.5 499.6,280.5 492.6,284.2 492.6,276.2" fill="#7aace8"/>
    <polygon points="492.6,276.2 492.6,284.2 485.6,280.5 485.6,272.5" fill="#5f95d7"/>
  </g><g class="cube" style="animation-delay:1.29s">
    <polygon points="462,276.75 469,280.45 462,284.15 455,280.45" fill="#DCE7F5" stroke="#BDCCE1" stroke-opacity="0.38" stroke-width=".42"/>
    <polygon points="469,280.45 469,283.45 462,287.15 462,284.15" fill="#CDDCEE"/>
    <polygon points="462,284.15 462,287.15 455,283.45 455,280.45" fill="#C1D3E8"/>
  </g><g class="cube liveCube" style="animation-delay:1.30s">
    <polygon points="485.2,271.55 492.2,275.25 485.2,278.95 478.2,275.25" fill="#9cc2f4" stroke="#087EA4" stroke-opacity="0.28" stroke-width=".42"/>
    <polygon points="492.2,275.25 492.2,284.25 485.2,287.95 485.2,278.95" fill="#74a7e5"/>
    <polygon points="485.2,278.95 485.2,287.95 478.2,284.25 478.2,275.25" fill="#5a91d5"/>
  </g><g class="cube" style="animation-delay:1.30s">
    <polygon points="477.8,281.3 484.8,285 477.8,288.7 470.8,285" fill="#DCE7F5" stroke="#BDCCE1" stroke-opacity="0.38" stroke-width=".42"/>
    <polygon points="484.8,285 484.8,288 477.8,291.7 477.8,288.7" fill="#CDDCEE"/>
    <polygon points="477.8,288.7 477.8,291.7 470.8,288 470.8,285" fill="#C1D3E8"/>
  </g><text x="72" y="190" class="month">JAN</text><text x="119.4" y="203.65" class="month">FEB</text><text x="182.60000000000002" y="221.85" class="month">MAR</text><text x="245.8" y="240.05" class="month">APR</text><text x="309" y="258.25" class="month">MAY</text><text x="388" y="281" class="month">JUN</text><text x="451.20000000000005" y="299.2" class="month">JUL</text><g class="beacon"><line x1="507.40000000000003" y1="239.3" x2="507.40000000000003" y2="225.3" class="pin"/>
      <rect x="454.40000000000003" y="203.3" width="106" height="22" rx="11" class="pill"/>
      <text x="507.40000000000003" y="218.3" text-anchor="middle" class="peakText">161.5M · 07-16</text></g></g></g>

  <g class="panelIn" style="animation-delay:.38s"><rect x="580" y="98" width="236" height="192" rx="12" class="panel"/><rect x="581" y="99" width="234" height="190" rx="11" class="panelHighlight"/>
    <text x="602" y="126" class="section">TOKEN ECONOMY</text><text x="797" y="126" text-anchor="end" class="statLabel">PRICED 100%</text>
    <line x1="602" y1="141" x2="797" y2="141" class="grid"/>
    <text x="602" y="171" class="stat">6d</text><text x="602" y="188" class="statLabel">ACTIVE DAYS</text>
    <text x="676" y="171" class="stat">5d</text><text x="676" y="188" class="statLabel">STREAK</text>
    <text x="752" y="171" class="stat">2</text><text x="752" y="188" class="statLabel">DEVICES</text>
    <line x1="602" y1="201" x2="797" y2="201" class="grid"/>
    <text x="602" y="230" class="stat">97%</text><text x="602" y="247" class="statLabel">CACHE HIT</text>
    <text x="797" y="230" text-anchor="end" class="stat">$164</text><text x="797" y="247" text-anchor="end" class="statLabel">EST. API COST</text>
    <rect x="602" y="261" width="195" height="8" rx="4" class="track"/><rect x="602" y="261" width="195" height="8" rx="4" fill="#0969DA" class="meterFill"/>
    <text x="602" y="281" class="statLabel">API PRICE COVERAGE</text><text x="797" y="281" text-anchor="end" class="statLabel">100%</text></g>

  <text x="494" y="326" class="month">LOW</text><rect x="528" y="320" width="76" height="7" rx="3.5" fill="url(#greenLegend)"/><text x="612" y="326" class="month">PEAK</text>

  <g class="panelIn" style="animation-delay:.8s"><rect x="24" y="348" width="792" height="237" rx="12" class="panel"/><rect x="25" y="349" width="790" height="235" rx="11" class="panelHighlight"/>
  <text x="44" y="376" class="section">MODEL ECONOMY</text>
  <text x="796" y="376" text-anchor="end" class="eyebrow">3 MODELS | PER-MODEL DEVICE SPLIT</text>
  <line x1="44" y1="392" x2="796" y2="392" class="grid"/>
  <text x="68" y="409" class="statLabel">MODEL / SHARE</text>
  <text x="204" y="409" class="statLabel">DEVICE SPLIT</text>
  <text x="470" y="409" text-anchor="end" class="statLabel">TOKENS</text>
  <text x="610" y="409" text-anchor="end" class="statLabel">CACHE HIT</text>
  <text x="796" y="409" text-anchor="end" class="statLabel">EST. USD</text>
  <g class="mrow" style="animation-delay:1.28s">
      <g transform="translate(50 434)" fill="none" stroke="#0969DA" stroke-width="1.25" stroke-linecap="round" opacity=".95">
    <path d="M0-6.4c3.4 0 6 2.2 6 5.2 0 1.5-.6 2.8-1.7 3.7"/>
    <path d="M5.6 3.2C3.9 6.1.7 7.2-2 5.8c-1.3-.7-2.1-1.9-2.3-3.3"/>
    <path d="M-5.6 3.2C-7.3.3-6.7-3.1-4-4.7c1.3-.7 2.7-.8 4.1-.3"/>
    <path d="M-3.7-1.7L0-3.9l3.7 2.2v4.3L0 4.7l-3.7-2.1z"/>
  </g>
      <text x="68" y="438" class="model">gpt-5.6-sol</text>
      <text x="68" y="452" class="rowMeta">79% SHARE · REASON 350.1K</text>
      <g class="deviceSplit"><rect x="204" y="421" width="146" height="34" rx="6" class="splitPanel"/><rect x="213" y="427" width="128" height="4" rx="2" class="track"/><rect x="213" y="427" width="114" height="4" rx="2" fill="#0969DA"/><rect x="327" y="427" width="14" height="4" rx="2" fill="#087EA4"/><text x="213" y="441" class="splitLabel">mac_work01</text><text x="341" y="441" text-anchor="end" class="splitLabel">89%</text><text x="213" y="452" class="splitLabel">linux</text><text x="341" y="452" text-anchor="end" class="splitLabel">11%</text></g>
      <text x="470" y="443" text-anchor="end" class="numberStrong">185.6M</text>
      <text x="610" y="443" text-anchor="end" class="numberStrong">97%</text>
      <text x="796" y="438" text-anchor="end" class="numberStrong">$143</text>
    </g><g class="mrow" style="animation-delay:1.38s">
      <g transform="translate(50 476)" fill="none" stroke="#0969DA" stroke-width="1.25" stroke-linecap="round" opacity=".95">
    <path d="M0-6.4c3.4 0 6 2.2 6 5.2 0 1.5-.6 2.8-1.7 3.7"/>
    <path d="M5.6 3.2C3.9 6.1.7 7.2-2 5.8c-1.3-.7-2.1-1.9-2.3-3.3"/>
    <path d="M-5.6 3.2C-7.3.3-6.7-3.1-4-4.7c1.3-.7 2.7-.8 4.1-.3"/>
    <path d="M-3.7-1.7L0-3.9l3.7 2.2v4.3L0 4.7l-3.7-2.1z"/>
  </g>
      <text x="68" y="480" class="model">gpt-5.6-terra</text>
      <text x="68" y="494" class="rowMeta">19% SHARE · REASON 56.9K</text>
      <g class="deviceSplit"><rect x="204" y="463" width="146" height="34" rx="6" class="splitPanel"/><rect x="213" y="469" width="128" height="4" rx="2" class="track"/><rect x="213" y="469" width="68" height="4" rx="2" fill="#0969DA"/><rect x="281" y="469" width="60" height="4" rx="2" fill="#087EA4"/><text x="213" y="483" class="splitLabel">linux</text><text x="341" y="483" text-anchor="end" class="splitLabel">53%</text><text x="213" y="494" class="splitLabel">mac_work01</text><text x="341" y="494" text-anchor="end" class="splitLabel">47%</text></g>
      <text x="470" y="485" text-anchor="end" class="numberStrong">45.3M</text>
      <text x="610" y="485" text-anchor="end" class="numberStrong">97%</text>
      <text x="796" y="480" text-anchor="end" class="numberStrong">$16.6</text>
    </g><g class="mrow" style="animation-delay:1.48s">
      <g transform="translate(50 518)" fill="none" stroke="#0969DA" stroke-width="1.25" stroke-linecap="round" opacity=".95">
    <path d="M0-6.4c3.4 0 6 2.2 6 5.2 0 1.5-.6 2.8-1.7 3.7"/>
    <path d="M5.6 3.2C3.9 6.1.7 7.2-2 5.8c-1.3-.7-2.1-1.9-2.3-3.3"/>
    <path d="M-5.6 3.2C-7.3.3-6.7-3.1-4-4.7c1.3-.7 2.7-.8 4.1-.3"/>
    <path d="M-3.7-1.7L0-3.9l3.7 2.2v4.3L0 4.7l-3.7-2.1z"/>
  </g>
      <text x="68" y="522" class="model">gpt-5.5</text>
      <text x="68" y="536" class="rowMeta">1% SHARE · REASON 9.5K</text>
      <g class="deviceSplit"><rect x="204" y="505" width="146" height="34" rx="6" class="splitPanel"/><rect x="213" y="511" width="128" height="4" rx="2" class="track"/><rect x="213" y="511" width="93" height="4" rx="2" fill="#0969DA"/><rect x="306" y="511" width="35" height="4" rx="2" fill="#087EA4"/><text x="213" y="525" class="splitLabel">linux</text><text x="341" y="525" text-anchor="end" class="splitLabel">73%</text><text x="213" y="536" class="splitLabel">mac_work01</text><text x="341" y="536" text-anchor="end" class="splitLabel">27%</text></g>
      <text x="470" y="527" text-anchor="end" class="numberStrong">3.5M</text>
      <text x="610" y="527" text-anchor="end" class="numberStrong">85%</text>
      <text x="796" y="522" text-anchor="end" class="numberStrong">$4.90</text>
    </g>
  <line x1="44" y1="551" x2="796" y2="551" class="grid"/>
  <text x="44" y="568" class="rowMeta">TEXT TOKEN API ESTIMATE | EXCLUDES TOOLS, REGIONAL, AND LONG-CONTEXT SURCHARGES | OPENAI RATES 2026-07-17</text></g>

  <text x="24" y="623" class="eyebrow">6 MONTHS | LOCAL-ONLY AGGREGATES | LIVE SVG</text>
  <text x="816" y="623" class="eyebrow" text-anchor="end">BUILD THE SYSTEM</text>
  </svg>